<svg height="511pt" viewBox="-2 1 511 511.999" width="511pt" xmlns="http://www.w3.org/2000/svg"><path d="m138.5 416.125c45.277344 0 61.609375 55.71875 63.429688 69.058594.273437 1.980468-.648438 3.949218-2.375 4.957031-24.800782 14.515625-160.941407 14.34375-185.984376-.011719-1.75-1.003906-2.6875-2.992187-2.414062-4.992187 1.835938-13.414063 14.183594-69.011719 59.410156-69.011719" fill="#8cbcff"/><path d="m440.597656 417.128906c45.277344 0 56.589844 55.71875 58.410156 69.054688.273438 1.984375-.648437 3.953125-2.375 4.960937-24.800781 14.511719-160.941406 14.34375-185.984374-.011719-1.75-1.003906-2.6875-2.992187-2.414063-4.992187 1.835937-13.414063 13.179687-69.011719 58.40625-69.011719" fill="#ffde91"/><path d="m453.492188 394.414062h35.648437c-3.367187-31.316406-1.011719-110.222656-83.511719-110.558593-82.5.339843-80.144531 79.242187-83.511718 110.558593h31.632812" fill="#b2705b"/><path d="m154.496094 349.320312v29.714844c0 27.542969-22.328125 49.871094-49.871094 49.871094s-49.871094-22.328125-49.871094-49.871094v-51.605468" fill="#f2d1a5"/><path d="m362.550781 352.894531h-8.800781v29.714844c0 27.542969 22.328125 49.871094 49.871094 49.871094 27.542968 0 49.871094-22.328125 49.871094-49.871094v-29.714844h-9.996094" fill="#f2d1a5"/><path d="m154.496094 355.167969-39.371094-.300781c-8.679688.0625-17.78125-1.738282-26.46875-5.066407-8.691406-3.324219-16.96875-8.167969-24.007812-14.183593-10.402344-8.894532-18.09375-20.347657-20.394532-33.246094h87.109375c12.777344 0 23.132813 10.359375 23.132813 23.136718zm0 0" fill="#bc9979"/><path d="m75.714844 113.777344v56.242187c0 6.453125 5.230468 11.683594 11.683594 11.683594h23.890624v33.484375c0 12.660156 14.683594 19.664062 24.523438 11.699219l55.8125-45.183594h125.058594l55.8125 45.183594c9.84375 7.964843 24.523437.960937 24.523437-11.699219v-33.484375h27.4375c6.453125 0 11.683594-5.230469 11.683594-11.683594v-148.300781c0-6.453125-5.230469-11.683594-11.683594-11.683594h-337.058593c-6.453126 0-11.683594 5.230469-11.683594 11.683594v12.28125" fill="#ece9e8"/><path d="m303.890625 95.894531c0 26.164063-21.210937 47.375-47.375 47.375s-47.375-21.210937-47.375-47.375c0-26.164062 21.210937-47.371093 47.375-47.371093s47.375 21.207031 47.375 47.371093zm0 0" fill="#00ee8a"/><path d="m242.621094 105.148438 8.054687 6.480468 19.632813-26.820312" fill="#00ee8a"/><path d="m194.394531 440.246094c-10.324219-16.148438-23.382812-26.789063-38.382812-31.453125 5.042969-8.777344 7.945312-18.933594 7.945312-29.757813v-53.527344c0-18.292968-14.878906-33.171874-33.167969-33.171874h-87.109374c-2.96875 0-5.785157 1.316406-7.695313 3.59375-1.90625 2.277343-2.703125 5.28125-2.183594 8.203124 1.53125 8.59375 5.050781 16.835938 10.34375 24.429688v50.472656c0 10.824219 2.902344 20.980469 7.945313 29.753906-14.839844 4.691407-27.355469 15.453126-36.769532 31.804688-10.949218 19.011719-14.148437 39.308594-14.679687 43.183594-.832031 6.105468 2.058594 12.015625 7.367187 15.058594 19.613282 11.242187 80.019532 12.152343 98.066407 12.160156h.316406c18.453125 0 78.367187-.902344 97.660156-12.191406 5.226563-3.058594 8.074219-8.9375 7.25-14.980469-1.027343-7.53125-5.882812-26.335938-16.90625-43.578125zm-90.34375-21.375c-21.964843 0-39.835937-17.871094-39.835937-39.835938v-30.648437c6.226562 4.367187 13.109375 8.046875 20.28125 10.789062 9.953125 3.804688 20.347656 5.765625 30.050781 5.726563l29.339844.222656v13.90625c0 21.96875-17.871094 39.839844-39.835938 39.839844zm26.738281-106.464844c7.222657 0 13.101563 5.875 13.101563 13.101562v19.546876l-29.265625-.21875c-.023438 0-.050781 0-.074219 0-.023437 0-.046875 0-.074219 0-7.25.042968-15.140624-1.472657-22.808593-4.40625-7.71875-2.953126-15.007813-7.253907-21.074219-12.441407-4.277344-3.65625-9.292969-8.898437-12.875-15.582031zm-24.703124 178.519531c-42.339844-.023437-73.230469-3.898437-84.9375-8.105469 2.464843-12.855468 12.972656-54.382812 46.101562-56.566406 7.65625 5.980469 16.792969 10.140625 26.765625 11.828125v21.464844c0 5.542969 4.492187 10.035156 10.035156 10.035156s10.035157-4.492187 10.035157-10.035156v-21.464844c9.96875-1.6875 19.101562-5.84375 26.753906-11.820312 32.097656 2.238281 46.484375 41.136719 49.90625 56.636719-11.621094 4.207031-42.367188 8.03125-84.660156 8.027343zm0 0"/><path d="m508.378906 484.828125c-.753906-5.539063-4.003906-25.019531-14.09375-43.070313-9.449218-16.914062-22.292968-27.878906-37.679687-32.359374.8125-1.609376 1.546875-3.261719 2.207031-4.949219h29.753906c2.847656 0 5.5625-1.210938 7.464844-3.328125 1.902344-2.117188 2.816406-4.945313 2.511719-7.777344-.300781-2.8125-.566407-6.179688-.851563-9.742188-1.410156-17.867187-3.542968-44.871093-15.488281-67.371093-14.859375-27.992188-40.800781-42.257813-77.191406-42.40625-36.304688.148437-62.25 14.414062-77.109375 42.40625-11.945313 22.5-14.074219 49.503906-15.488282 67.371093-.28125 3.5625-.546874 6.929688-.847656 9.742188-.304687 2.832031.605469 5.660156 2.511719 7.777344 1.902344 2.117187 4.613281 3.328125 7.464844 3.328125h25.738281c.660156 1.6875 1.398438 3.339843 2.203125 4.949219-15.367187 4.476562-28.199219 15.421874-37.652344 32.304687-10.097656 18.039063-13.359375 37.53125-14.117187 43.078125-.835938 6.105469 2.058594 12.011719 7.367187 15.054688 19.613281 11.246093 80.019531 12.152343 98.066407 12.164062h.316406c18.453125 0 78.367187-.90625 97.660156-12.195312 5.230469-3.058594 8.078125-8.9375 7.253906-14.976563zm-175.890625-100.449219c3.671875-45.773437 12.527344-90.242187 72.523438-90.488281 60.082031.246094 68.9375 44.714844 72.609375 90.488281h-14.710938c.015625-.589844.042969-1.175781.042969-1.773437v-29.710938c0-5.542969-4.492187-10.035156-10.035156-10.035156h-9.996094c-5.542969 0-10.035156 4.492187-10.035156 10.035156 0 5.527344 4.472656 10.011719 10 10.035157v19.675781c0 21.96875-17.871094 39.839843-39.839844 39.839843-21.964844 0-39.835937-17.871093-39.835937-39.839843v-19.753907c4.960937-.605468 8.800781-4.835937 8.800781-9.957031 0-5.542969-4.492188-10.035156-10.035157-10.035156h-8.800781c-5.542969 0-10.035156 4.492187-10.035156 10.035156v29.710938c0 .597656.027344 1.183593.046875 1.773437zm71.066407 107.550782c-.128907 0-.261719 0-.390626 0-42.371093-.023438-73.277343-3.90625-84.964843-8.117188 2.449219-13.445312 12.535156-54.246094 44.976562-56.542969 8.714844 7.785157 19.707031 13.058594 31.84375 14.691407v21.601562c0 5.539062 4.492188 10.035156 10.035157 10.035156 5.542968 0 10.035156-4.496094 10.035156-10.035156v-22.261719c10.546875-2.164062 20.089844-7.113281 27.832031-14.03125 32.476563 2.304688 42.542969 43.171875 44.980469 56.605469-11.527344 4.199219-42.164063 8.054688-84.347656 8.054688zm0 0"/><path d="m75.140625 44.035156c5.542969 0 10.035156-4.492187 10.035156-10.035156v-12.28125c0-.910156.742188-1.648438 1.648438-1.648438h337.058593c.910157 0 1.648438.738282 1.648438 1.648438v148.300781c0 .90625-.738281 1.648438-1.648438 1.648438h-27.433593c-5.542969 0-10.035157 4.492187-10.035157 10.035156v33.484375c0 2.855469-2 4.117188-2.859374 4.527344-.855469.410156-3.09375 1.167968-5.316407-.628906l-55.8125-45.183594c-1.785156-1.445313-4.015625-2.234375-6.3125-2.234375h-125.058593c-2.300782 0-4.53125.789062-6.316407 2.234375l-55.8125 45.183594c-2.222656 1.796874-4.457031 1.039062-5.316406.628906s-2.859375-1.671875-2.859375-4.527344v-33.484375c0-5.542969-4.492188-10.035156-10.035156-10.035156h-23.890625c-.90625 0-1.648438-.742188-1.648438-1.648438v-56.242187c0-5.542969-4.492187-10.035156-10.035156-10.035156-5.539063 0-10.035156 4.492187-10.035156 10.035156v56.242187c0 11.972657 9.746093 21.71875 21.71875 21.71875h13.855469v23.449219c0 9.761719 5.476562 18.4375 14.285156 22.640625 3.484375 1.664063 7.183594 2.476563 10.855468 2.476563 5.605469 0 11.144532-1.90625 15.734376-5.621094l53.050781-42.949219h117.953125l53.050781 42.949219c7.589844 6.144531 17.777344 7.347656 26.589844 3.144531 8.808593-4.203125 14.285156-12.878906 14.285156-22.640625v-23.449219h17.398437c11.976563 0 21.71875-9.746093 21.71875-21.71875v-148.300781c0-11.976562-9.742187-21.71875-21.71875-21.71875h-337.058593c-11.972657 0-21.71875 9.742188-21.71875 21.71875v12.28125c0 5.542969 4.496093 10.035156 10.035156 10.035156zm0 0"/><path d="m313.351562 95.894531c0-31.652343-25.753906-57.40625-57.410156-57.40625-31.652344 0-57.40625 25.753907-57.40625 57.40625 0 31.65625 25.753906 57.410157 57.40625 57.410157 31.65625 0 57.410156-25.753907 57.410156-57.410157zm-94.746093 0c0-20.585937 16.75-37.335937 37.335937-37.335937 20.589844 0 37.339844 16.75 37.339844 37.335937 0 20.589844-16.75 37.339844-37.339844 37.339844-20.585937 0-37.335937-16.75-37.335937-37.339844zm0 0"/><path d="m258.203125 117.554688 19.628906-26.816407c3.273438-4.472656 2.300781-10.753906-2.167969-14.027343-4.472656-3.273438-10.753906-2.300782-14.027343 2.171874l-13.429688 18.34375c-4.3125-3.355468-10.539062-2.644531-13.980469 1.632813-3.472656 4.316406-2.789062 10.632813 1.527344 14.109375l8.058594 6.480469c1.792969 1.441406 4.015625 2.214843 6.289062 2.214843.4375 0 .875-.027343 1.308594-.085937 2.71875-.355469 5.171875-1.808594 6.792969-4.023437zm0 0"/><path d="m65.871094 78.074219c1.582031 3.902343 5.339844 6.269531 9.304687 6.269531 1.253907 0 2.53125-.238281 3.765625-.738281 5.136719-2.078125 7.613282-7.929688 5.53125-13.066407l-.0625-.152343c-2.082031-5.136719-7.929687-7.613281-13.070312-5.53125-5.136719 2.078125-7.613282 7.929687-5.53125 13.066406zm0 0"/><path d="m393.210938 357.027344c1.582031 3.902344 5.339843 6.269531 9.304687 6.269531 1.253906 0 2.53125-.238281 3.765625-.738281 5.136719-2.078125 7.613281-7.929688 5.53125-13.066406l-.0625-.152344c-2.082031-5.136719-7.929688-7.613282-13.070312-5.53125-5.136719 2.078125-7.613282 7.929687-5.53125 13.066406zm0 0"/></svg>