<svg height="511pt" viewBox="-57 0 511 511.99996" width="511pt" xmlns="http://www.w3.org/2000/svg"><path d="m27.277344 455.101562c8.617187 18.957032 21.9375 34.523438 42.6875 42.644532 19.230468 7.527344 42.976562 4.828125 57.902344-9.441406 18.199218-17.398438 18.183593-46.503907 27.058593-68.960938 14.734375-37.292969 44.746094-59.210938 71.777344-87.035156 29.867187-30.742188 40.5-75.0625 33.671875-117.101563-7-43.105469-38.378906-71.457031-79.679688-82.527343-37.777343-10.128907-77.933593-6.414063-108.308593 19.84375-19.894531 17.199218-33.078125 40.644531-41.746094 65.1875-14.886719 42.152343-20.996094 87.105468-19.859375 131.71875.8125 31.847656 1.921875 73.609374 16.496094 105.671874zm0 0" fill="#f2d1a5"/><path d="m183.324219 122.875c-45.363281-12.160156-87.117188-4.359375-117.574219 21.96875-19.234375 16.632812-34.269531 40.011719-44.679688 69.484375-13.433593 38.039063-20.738281 83.960937-20.566406 129.300781.019532 5.589844 4.558594 10.109375 10.144532 10.109375h.042968c5.601563-.019531 10.128906-4.582031 10.109375-10.1875-.164062-43.070312 6.730469-86.5625 19.410157-122.460937 9.21875-26.109375 22.277343-46.59375 38.816406-60.890625 34.007812-29.402344 76.652344-23.71875 99.039062-17.71875 40.007813 10.726562 66.359375 37.828125 72.289063 74.355469 6.671875 41.074218-4.890625 81.597656-30.929688 108.402343-5.980469 6.15625-12.25 12.148438-18.3125 17.945313-21.339843 20.402344-43.40625 41.503906-55.628906 72.433594-3.214844 8.140624-5.308594 16.867187-7.332031 25.308593-3.761719 15.683594-7.3125 30.5-17.300782 40.042969-11.269531 10.777344-30.675781 13.789062-47.1875 7.328125-16.496093-6.453125-28.648437-18.683594-37.148437-37.394531-4.03125-8.867188-7.230469-23.246094-8.769531-30.160156-1.21875-5.46875-6.640625-8.921876-12.113282-7.699219-5.46875 1.21875-8.917968 6.640625-7.699218 12.113281 2.699218 12.125 5.792968 24.660156 10.105468 34.144531 10.644532 23.425781 26.871094 39.539063 48.226563 47.898438 8.265625 3.234375 16.957031 4.800781 25.496094 4.800781 16.242187 0 31.941406-5.679688 43.117187-16.359375 14.304688-13.675781 18.929688-32.964844 23.011719-49.980469 1.945313-8.117187 3.78125-15.78125 6.472656-22.585937 10.585938-26.792969 30.105469-45.460938 50.777344-65.222657 6.195313-5.921874 12.601563-12.046874 18.84375-18.472656 30.492187-31.386718 44.101563-78.417968 36.40625-125.800781-7.269531-44.753906-39.003906-77.816406-87.066406-90.703125zm0 0"/><path d="m213.597656 240.9375c.261719-18.65625-7.546875-37.320312-20.890625-49.933594-13.777343-13.019531-33.070312-19.464844-51.613281-17.238281-20.929688 2.511719-38.839844 15.382813-51.792969 37.21875-10.316406 17.398437-16.59375 39.816406-16.785156 59.972656-.066406 7.183594 3.523437 12.746094 9.851563 15.257813 3.847656 1.527344 7.90625 1.636718 12.207031 1.753906 10.699219.292969 18.425781.503906 22.609375 17.683594 1.679687 6.910156 3.527344 19.933594-2.988282 29.535156-5.484374 8.082031-15.339843 13.417969-25.105468 13.589844-5.601563.097656-10.066406 4.71875-9.96875 10.324218.097656 5.542969 4.621094 9.96875 10.144531 9.96875h.179687c16.410157-.289062 32.328126-8.902343 41.546876-22.484374 10.367187-15.277344 8.933593-33.300782 5.910156-45.730469-7.847656-32.25-30.761719-32.875-41.773438-33.175781-.683594-.019532-1.460937-.039063-2.210937-.070313.796875-15.78125 5.867187-32.824219 13.839843-46.269531 6.703126-11.300782 18.523438-25.234375 36.753907-27.421875 12.441406-1.488281 25.949219 3.042969 35.253906 11.839843 9.285156 8.777344 14.71875 21.820313 14.535156 34.894532-.078125 5.601562 4.402344 10.210937 10.007813 10.289062 5.589844.0625 10.210937-4.402344 10.289062-10.003906zm0 0"/><path d="m192.238281 270.65625c-5.199219 2.097656-7.710937 8.011719-5.613281 13.210938l.054688.136718c1.597656 3.957032 5.398437 6.355469 9.417968 6.355469 1.261719 0 2.550782-.238281 3.792969-.738281 5.195313-2.097656 7.710937-8.011719 5.613281-13.210938l-.054687-.136718c-2.101563-5.199219-8.011719-7.714844-13.210938-5.617188zm0 0"/><path d="m15.589844 393.394531c5.199218-2.09375 7.714844-8.007812 5.621094-13.207031l-.054688-.136719c-2.097656-5.199219-8.011719-7.71875-13.207031-5.621093-5.199219 2.09375-7.714844 8.007812-5.621094 13.207031l.054687.136719c1.59375 3.957031 5.398438 6.359374 9.417969 6.359374 1.261719 0 2.546875-.238281 3.789063-.738281zm0 0"/><path d="m318.394531 75.148438c-18.707031-17.28125-41.472656-27.316407-59.417969-26.191407-5.59375.347657-9.84375 5.167969-9.492187 10.761719s5.167969 9.828125 10.761719 9.492188c12.417968-.777344 29.824218 7.402343 44.375 20.84375 14.550781 13.441406 24.085937 30.15625 24.289062 42.585937.089844 5.546875 4.617188 9.980469 10.144532 9.980469h.167968c5.605469-.09375 10.074219-4.710938 9.980469-10.316406-.296875-17.972657-12.101563-39.875-30.808594-57.15625zm0 0"/><path d="m286.363281 109.824219c-12.277343-11.34375-26.820312-17.65625-38.914062-16.898438-5.59375.351563-9.839844 5.171875-9.492188 10.765625.355469 5.59375 5.167969 9.828125 10.765625 9.492188 5.296875-.335938 14.730469 3.105468 23.867188 11.546875 9.136718 8.441406 13.316406 17.574219 13.402344 22.878906.089843 5.546875 4.617187 9.980469 10.144531 9.980469h.167969c5.605468-.09375 10.074218-4.710938 9.980468-10.3125-.199218-12.113282-7.648437-26.113282-19.921875-37.453125zm0 0"/><path d="m349.519531 41.457031c-29.476562-27.234375-65.027343-43.074219-92.808593-41.324219-5.59375.347657-9.84375 5.167969-9.492188 10.761719s5.167969 9.835938 10.765625 9.492188c22.082031-1.394531 52.605469 12.734375 77.761719 35.976562 25.15625 23.242188 41.648437 52.550781 42.011718 74.675781.09375 5.546876 4.617188 9.980469 10.144532 9.980469h.171875c5.601562-.09375 10.070312-4.710937 9.976562-10.316406-.453125-27.816406-19.050781-62.015625-48.53125-89.246094zm0 0"/></svg>