<svg height="512pt" viewBox="0 -34 512.00029 512" width="512pt" xmlns="http://www.w3.org/2000/svg"><path d="m338.378906 183.761719 136.011719-.375c14.652344-.039063 26.5625 11.804687 26.601563 26.453125l.417968 148.1875c.042969 14.648437-11.800781 26.558594-26.453125 26.601562l-36.363281.101563-46.167969 48.253906-41.871093-48.003906-107.5.300781c-14.648438.042969-26.558594-11.800781-26.601563-26.453125l-.152344-146.730469" fill="#ece9e8"/><path d="m50.972656 11.292969-13.929687.066406c-14.652344.042969-26.496094 11.953125-26.453125 26.605469l.417968 148.183594c.039063 14.652343 11.949219 26.496093 26.601563 26.457031l36.363281-.105469 46.441406 47.992188 41.597657-48.238282 149.558593-.421875c14.652344-.042969 26.496094-11.953125 26.453126-26.601562l-.417969-148.1875c-.039063-14.652344-11.949219-26.496094-26.601563-26.453125l-24.886718.070312-91.179688.257813-64.292969.246093" fill="#9ee2f8"/><g stroke="#000" stroke-miterlimit="10" transform="matrix(1.008436 0 0 1.008436 .000146 -34.213056)"><path d="m506.802692 241.984225c-.058104-20.018627-16.416204-36.21791-36.407715-36.202416l-125.232625.344748-.37961-135.493721c-.058104-19.987638-16.330986-36.206289-36.303129-36.206289-.034863 0-.069725 0-.104587 0l-115.107104.32538-63.755143.247909c-5.523716.019367-9.982199 4.512712-9.962831 10.036428.019368 5.512095 4.493345 9.962831 9.997693 9.962831h.042609l63.747396-.247909 115.095484-.32538h.046483c8.967322 0 16.280628 7.286191 16.30387 16.26126l.414472 146.944004c.027115 8.994437-7.266824 16.327111-16.257387 16.354226l-148.311375.418346c-2.897433.007747-5.64767 1.274406-7.541847 3.466848l-34.102939 39.549184-38.445216-39.723495c-1.890303-1.952281-4.497218-3.087238-7.212593-3.044628l-36.059094.100713c-.019368 0-.030988 0-.050356 0-4.334529 0-8.417275-1.685005-11.496766-4.745128-3.087238-3.071743-4.795484-7.158363-4.807104-11.516133l-.414473-146.947877c-.01162-4.353896 1.673384-8.452137 4.745128-11.539375 3.071743-3.091111 7.158363-4.799357 11.535501-4.810978l13.817036-.065851c5.519842-.027115 9.978325-4.524333 9.95121-10.048049-.027115-5.523715-4.50884-10.001566-10.051923-9.95121l-13.789921.065851c-9.699428.027115-18.806198 3.830964-25.643055 10.706557-6.840731 6.875592-10.59035 16.005605-10.563235 25.701159l.414473 146.947877c.058103 20.018626 16.381341 36.287634 36.407715 36.202416l31.805911-.089093 43.093503 44.534473c1.88643 1.948407 4.481724 3.044628 7.185478 3.044628.096839 0 .189805 0 .286644-.003873 2.808341-.081345 5.450118-1.340257 7.286192-3.466848l38.270904-44.37953 39.254792-.10846.139449 135.501468c.027115 9.695554 3.830964 18.802325 10.706556 25.643055 6.852351 6.809742 15.935881 10.559361 25.596573 10.559361h.104586l102.033794-.286644 38.518813 44.162609c1.847695 2.118844 4.497219 3.358388 7.30556 3.424239.077471.003873.154943.003873.232414.003873 2.723122 0 5.33391-1.115589 7.224214-3.087238l42.841721-44.774633 31.80591-.089093c9.695554-.027115 18.802325-3.82709 25.639182-10.706556 6.84073-6.875593 10.590349-16.001732 10.563234-25.701159zm-24.329914 158.545355c-3.071743 3.091112-7.162237 4.795484-11.516133 4.810978l-36.059094.100713c-2.719249.007747-5.318416 1.123337-7.197099 3.087238l-38.216675 39.940415-34.327606-39.355505c-1.905798-2.184696-4.68315-3.455228-7.565089-3.428113l-106.596864.302139c-.015494 0-.030988 0-.046482 0-4.338403 0-8.417275-1.685004-11.496766-4.741254-3.087238-3.071743-4.795484-7.162237-4.807104-11.500639l-.139449-135.520835 84.490381-.240162c17.074711-.046483 31.391438-11.938353 35.19916-27.854865l126.255249-.348622h.046482c8.971196 0 16.280629 7.282318 16.307744 16.257387l.414472 146.947877c.011621 4.35777-1.673383 8.45601-4.745127 11.543248zm0 0"/><path d="m87.627831 54.97198.213046.06585c.956773.286645 1.92904.42222 2.881939.42222 4.295792 0 8.270079-2.792847 9.571599-7.123502 1.588165-5.291301-1.40998-10.865373-6.701281-12.457411l-.213047-.061977c-5.287428-1.588166-10.865373 1.40998-12.453538 6.701281-1.588165 5.287428 1.409981 10.865373 6.701282 12.453539zm0 0"/><path d="m142.473755 205.952246c4.617299 0 7.359789-1.553303 8.219723-4.671529l5.481106-20.146455h34.0061l5.477232 20.146455c.859934 3.118226 3.59855 4.671529 8.219723 4.671529 3.76124 0 7.386904-1.01875 10.880867-3.060123 3.49009-2.041373 5.237072-4.458483 5.237072-7.251329 0-.32538-.108461-.914163-.325381-1.774097l-30.1364-98.31129c-.859933-2.68826-2.819961-4.756748-5.883958-6.205464-3.060123-1.45259-6.581201-2.176949-10.555487-2.176949-3.97816 0-7.495364.724359-10.555487 2.176949-3.063997 1.448716-5.024025 3.521078-5.883958 6.205464l-29.977584 98.31129c-.21692.859934-.321506 1.448717-.321506 1.774097 0 2.792846 1.743108 5.209956 5.237071 7.251329s7.119627 3.060123 10.880867 3.060123zm30.620597-87.352951 11.767916 43.194216h-23.531958zm0 0"/><path d="m387.097656 303.969145c.755347-5.779371-5.151852-8.417275-10.935097-8.417275-4.144724 0-6.658673 1.758603-7.789756 5.527589-8.545103 0-14.704084 1.003256-18.852681 1.886431.123954-3.521079.251782-5.9072.503564-8.924713 2.138213-.123955 4.776116-.251783 8.92084-.503565 5.151852-.375736 12.817654-1.382866 19.4802-1.88643 12.693699-1.255038 16.714468-3.768987 16.714468-10.679442 0-5.27968-3.141467-9.048667-7.665801-9.048667-.879301 0-1.88643 0-3.896815.375737-13.197264 2.010384-18.600899 2.889685-31.922117 3.77286.503564-3.645032.755346-6.914328.755346-8.672931 0-4.90007-3.141468-7.541847-9.048667-7.541847-7.665801.127828-9.676186 3.269296-10.807269 16.966251h-4.776116c-3.01364 0-8.417275-.123954-11.310834-.123954-6.406891 0-8.796885 2.386121-8.796885 8.796885 0 9.548358 5.403634 9.548358 16.842296 9.548358 2.262167 0 4.648288 0 7.162237-.247909-.251782 4.900071-.503564 9.424404-.503564 14.576257-19.10059 9.552232-29.532123 24.128488-29.532123 40.842957 0 14.704084 7.665802 22.997404 21.114848 22.997404 5.275807 0 9.548358-1.003255 15.203775-3.521078 1.634648 2.765732 3.393251 3.772861 6.786501 3.772861 6.534718 0 11.438662-3.772861 11.438662-8.669057 0-1.762476-.503565-3.896815-1.382866-6.410764 9.048667-8.169366 18.976636-21.866322 26.514609-37.825444 6.786501 2.761858 10.431533 8.545103 10.431533 16.334859 0 14.452302-12.062307 19.10059-19.979891 22.245932-4.020769 1.50682-6.031153 4.52046-6.031153 8.669057 0 5.655417 4.52046 10.17975 10.051922 10.17975 6.662546 0 35.439322-9.676186 35.439322-41.470476 0-16.086949-8.669057-27.77352-24.128488-32.549636zm-62.96106 50.898753c-2.889686 0-4.776116-2.517822-4.776116-6.158981 0-8.672931 5.783245-13.824783 12.190135-19.604155.37961 7.541847 1.131084 15.079821 2.262167 22.49384-4.144724 2.262167-7.286191 3.269296-9.676186 3.269296zm26.390655-16.966251c-.503565-3.645032-1.131084-12.945482-1.131084-17.59377 4.40038-1.382865 8.796885-2.262167 13.573001-2.641777-2.134339 5.655417-7.290065 14.076566-12.441917 20.235547zm0 0"/></g></svg>