<?xml version="1.0" encoding="UTF-8" standalone="no"?><svg xmlns="http://www.w3.org/2000/svg" xmlns:xlink="http://www.w3.org/1999/xlink" contentScriptType="application/ecmascript" contentStyleType="text/css" height="949px" preserveAspectRatio="none" style="width:598px;height:949px;" version="1.1" viewBox="0 0 598 949" width="598px" zoomAndPan="magnify"><defs><filter height="300%" id="fcuazp65vjirj" width="300%" x="-1" y="-1"><feGaussianBlur result="blurOut" stdDeviation="2.0"/><feColorMatrix in="blurOut" result="blurOut2" type="matrix" values="0 0 0 0 0 0 0 0 0 0 0 0 0 0 0 0 0 0 .4 0"/><feOffset dx="4.0" dy="4.0" in="blurOut2" result="blurOut3"/><feBlend in="SourceGraphic" in2="blurOut3" mode="normal"/></filter></defs><g><ellipse cx="353" cy="18" fill="#000000" filter="url(#fcuazp65vjirj)" rx="10" ry="10" style="stroke: none; stroke-width: 1.0;"/><rect fill="#FEFECE" filter="url(#fcuazp65vjirj)" height="50" rx="12.5" ry="12.5" style="stroke: #A80036; stroke-width: 1.5;" width="106" x="300" y="89"/><line style="stroke: #A80036; stroke-width: 1.5;" x1="300" x2="406" y1="115.2969" y2="115.2969"/><text fill="#000000" font-family="sans-serif" font-size="14" lengthAdjust="spacingAndGlyphs" textLength="86" x="310" y="106.9951">startSession</text><rect fill="#FEFECE" filter="url(#fcuazp65vjirj)" height="50" rx="12.5" ry="12.5" style="stroke: #A80036; stroke-width: 1.5;" width="200" x="253" y="200"/><line style="stroke: #A80036; stroke-width: 1.5;" x1="253" x2="453" y1="226.2969" y2="226.2969"/><text fill="#000000" font-family="sans-serif" font-size="14" lengthAdjust="spacingAndGlyphs" textLength="180" x="263" y="217.9951">getNextWordFromSession</text><rect fill="#FEFECE" filter="url(#fcuazp65vjirj)" height="50" rx="12.5" ry="12.5" style="stroke: #A80036; stroke-width: 1.5;" width="98" x="164" y="327"/><line style="stroke: #A80036; stroke-width: 1.5;" x1="164" x2="262" y1="353.2969" y2="353.2969"/><text fill="#000000" font-family="sans-serif" font-size="14" lengthAdjust="spacingAndGlyphs" textLength="78" x="174" y="344.9951">speakWord</text><ellipse cx="307" cy="352" fill="none" filter="url(#fcuazp65vjirj)" rx="10" ry="10" style="stroke: #000000; stroke-width: 1.0;"/><ellipse cx="307.5" cy="352.5" fill="#000000" rx="6" ry="6" style="stroke: none; stroke-width: 1.0;"/><rect fill="#FEFECE" filter="url(#fcuazp65vjirj)" height="50" rx="12.5" ry="12.5" style="stroke: #A80036; stroke-width: 1.5;" width="93" x="166.5" y="438"/><line style="stroke: #A80036; stroke-width: 1.5;" x1="166.5" x2="259.5" y1="464.2969" y2="464.2969"/><text fill="#000000" font-family="sans-serif" font-size="14" lengthAdjust="spacingAndGlyphs" textLength="73" x="176.5" y="455.9951">listenWord</text><rect fill="#FEFECE" filter="url(#fcuazp65vjirj)" height="50" rx="12.5" ry="12.5" style="stroke: #A80036; stroke-width: 1.5;" width="113" x="129.5" y="565"/><line style="stroke: #A80036; stroke-width: 1.5;" x1="129.5" x2="242.5" y1="591.2969" y2="591.2969"/><text fill="#000000" font-family="sans-serif" font-size="14" lengthAdjust="spacingAndGlyphs" textLength="93" x="139.5" y="582.9951">checkAnswer</text><rect fill="#FEFECE" filter="url(#fcuazp65vjirj)" height="50" rx="12.5" ry="12.5" style="stroke: #A80036; stroke-width: 1.5;" width="101" x="245.5" y="676"/><line style="stroke: #A80036; stroke-width: 1.5;" x1="245.5" x2="346.5" y1="702.2969" y2="702.2969"/><text fill="#000000" font-family="sans-serif" font-size="14" lengthAdjust="spacingAndGlyphs" textLength="81" x="255.5" y="693.9951">repeatWord</text><rect fill="#FEFECE" filter="url(#fcuazp65vjirj)" height="50" rx="12.5" ry="12.5" style="stroke: #A80036; stroke-width: 1.5;" width="204" x="6" y="676"/><line style="stroke: #A80036; stroke-width: 1.5;" x1="6" x2="210" y1="702.2969" y2="702.2969"/><text fill="#000000" font-family="sans-serif" font-size="14" lengthAdjust="spacingAndGlyphs" textLength="184" x="16" y="693.9951">updateTimestampForWord</text><polygon fill="#FEFECE" filter="url(#fcuazp65vjirj)" points="400,787,412,799,400,811,388,799,400,787" style="stroke: #A80036; stroke-width: 1.5;"/><rect fill="#FEFECE" filter="url(#fcuazp65vjirj)" height="50" rx="12.5" ry="12.5" style="stroke: #A80036; stroke-width: 1.5;" width="174" x="406" y="888"/><line style="stroke: #A80036; stroke-width: 1.5;" x1="406" x2="580" y1="914.2969" y2="914.2969"/><text fill="#000000" font-family="sans-serif" font-size="14" lengthAdjust="spacingAndGlyphs" textLength="154" x="416" y="905.9951">incrementSlotForWord</text><!--link *start to startSession--><path d="M353,28.2737 C353,41.3608 353,64.5555 353,83.5207 " fill="none" id="*start-startSession" style="stroke: #A80036; stroke-width: 1.0;"/><polygon fill="#A80036" points="353,88.7458,357,79.7458,353,83.7458,349,79.7458,353,88.7458" style="stroke: #A80036; stroke-width: 1.0;"/><!--link startSession to getNextWordFromSession--><path d="M353,139.1876 C353,155.6504 353,177.2461 353,194.6543 " fill="none" id="startSession-getNextWordFromSession" style="stroke: #A80036; stroke-width: 1.0;"/><polygon fill="#A80036" points="353,199.9121,357,190.9121,353,194.9121,349,190.9121,353,199.9121" style="stroke: #A80036; stroke-width: 1.0;"/><!--link getNextWordFromSession to speakWord--><path d="M325.3405,250.0911 C302.043,271.2253 268.7224,301.4518 244.4218,323.496 " fill="none" id="getNextWordFromSession-speakWord" style="stroke: #A80036; stroke-width: 1.0;"/><polygon fill="#A80036" points="240.602,326.961,249.9554,323.8765,244.3052,323.6015,244.5802,317.9513,240.602,326.961" style="stroke: #A80036; stroke-width: 1.0;"/><!--link getNextWordFromSession to *end--><path d="M323.5921,250.2586 C315.6934,258.8094 308.1874,269.005 304,280 C296.8618,298.7432 299.8402,322.2466 303.0641,337.1981 " fill="none" id="getNextWordFromSession-*end" style="stroke: #A80036; stroke-width: 1.0;"/><polygon fill="#A80036" points="304.2446,342.295,306.1106,332.6245,303.1163,337.424,298.3169,334.4297,304.2446,342.295" style="stroke: #A80036; stroke-width: 1.0;"/><text fill="#000000" font-family="sans-serif" font-size="13" lengthAdjust="spacingAndGlyphs" textLength="68" x="305" y="293.0669">End Of List</text><!--link speakWord to listenWord--><path d="M213,377.1876 C213,393.6504 213,415.2461 213,432.6543 " fill="none" id="speakWord-listenWord" style="stroke: #A80036; stroke-width: 1.0;"/><polygon fill="#A80036" points="213,437.9121,217,428.9121,213,432.9121,209,428.9121,213,437.9121" style="stroke: #A80036; stroke-width: 1.0;"/><!--link listenWord to checkAnswer--><path d="M207.6657,488.0911 C203.2835,508.7035 197.0626,537.9647 192.4102,559.8484 " fill="none" id="listenWord-checkAnswer" style="stroke: #A80036; stroke-width: 1.0;"/><polygon fill="#A80036" points="191.3232,564.961,197.1075,556.9897,192.363,560.0703,189.2824,555.3259,191.3232,564.961" style="stroke: #A80036; stroke-width: 1.0;"/><!--link checkAnswer to repeatWord--><path d="M210.9607,615.1876 C227.6971,632.0762 249.7867,654.3666 267.2577,671.9964 " fill="none" id="checkAnswer-repeatWord" style="stroke: #A80036; stroke-width: 1.0;"/><polygon fill="#A80036" points="271.1381,675.9121,267.6442,666.7038,267.6186,672.3606,261.9618,672.335,271.1381,675.9121" style="stroke: #A80036; stroke-width: 1.0;"/><!--link checkAnswer to updateTimestampForWord--><path d="M168.3006,615.1876 C156.5327,631.9342 141.0324,653.9923 128.6939,671.5509 " fill="none" id="checkAnswer-updateTimestampForWord" style="stroke: #A80036; stroke-width: 1.0;"/><polygon fill="#A80036" points="125.6294,675.9121,134.0768,670.8483,128.5042,671.8212,127.5313,666.2486,125.6294,675.9121" style="stroke: #A80036; stroke-width: 1.0;"/><!--link updateTimestampForWord to c--><path d="M182.8181,726.1102 C252.0716,749.3528 349.6155,782.0901 385.7832,794.2286 " fill="none" id="updateTimestampForWord-c" style="stroke: #A80036; stroke-width: 1.0;"/><polygon fill="#A80036" points="390.6634,795.8665,383.4038,789.2108,385.9232,794.2756,380.8584,796.7951,390.6634,795.8665" style="stroke: #A80036; stroke-width: 1.0;"/><!--link c to getNextWordFromSession--><path d="M400,786.9303 C400,768.4341 400,731.9653 400,701 C400,352 400,352 400,352 C400,317.0306 384.1333,279.8236 370.8378,254.7844 " fill="none" id="c-getNextWordFromSession" style="stroke: #A80036; stroke-width: 1.0;"/><polygon fill="#A80036" points="368.3896,250.2539,369.1494,260.0734,370.7667,254.6527,376.1874,256.27,368.3896,250.2539" style="stroke: #A80036; stroke-width: 1.0;"/><text fill="#000000" font-family="sans-serif" font-size="13" lengthAdjust="spacingAndGlyphs" textLength="161" x="401" y="531.0669">[correctAnswer == false]</text><!--link c to incrementSlotForWord--><path d="M397.4946,808.533 C394.8198,820.8589 392.0739,842.5704 401,858 C407.252,868.8072 416.5462,877.7275 426.8586,885.0076 " fill="none" id="c-incrementSlotForWord" style="stroke: #A80036; stroke-width: 1.0;"/><polygon fill="#A80036" points="431.0144,887.8206,425.8037,879.4631,426.8739,885.0178,421.3192,886.0879,431.0144,887.8206" style="stroke: #A80036; stroke-width: 1.0;"/><text fill="#000000" font-family="sans-serif" font-size="13" lengthAdjust="spacingAndGlyphs" textLength="157" x="402" y="854.0669">[correctAnswer == true]</text><!--link repeatWord to listenWord--><path d="M290.6463,675.5348 C284.5187,647.9055 273.5573,602.6918 260,565 C251.0191,540.0314 238.3046,512.7843 228.364,492.7374 " fill="none" id="repeatWord-listenWord" style="stroke: #A80036; stroke-width: 1.0;"/><polygon fill="#A80036" points="226.03,488.0596,226.4692,497.8987,228.2624,492.5336,233.6275,494.3268,226.03,488.0596" style="stroke: #A80036; stroke-width: 1.0;"/><!--link incrementSlotForWord to getNextWordFromSession--><path d="M533.354,887.8718 C544.4396,879.4567 555.6838,869.3033 564,858 C580.585,835.4579 586,826.9859 586,799 C586,352 586,352 586,352 C586,289.2655 520.0749,257.3372 458.3586,241.1923 " fill="none" id="incrementSlotForWord-getNextWordFromSession" style="stroke: #A80036; stroke-width: 1.0;"/><polygon fill="#A80036" points="453.1652,239.8677,460.8975,245.9679,458.0101,241.1034,462.8746,238.216,453.1652,239.8677" style="stroke: #A80036; stroke-width: 1.0;"/><!--
@startuml
[*] - -> startSession
startSession - -> getNextWordFromSession
getNextWordFromSession - -> speakWord
getNextWordFromSession - -> [*]: End Of List
speakWord - -> listenWord
listenWord - -> checkAnswer
checkAnswer - -> repeatWord
checkAnswer - -> updateTimestampForWord
state c <<choice>>
updateTimestampForWord - -> c
c - -> getNextWordFromSession : [correctAnswer == false]
c - -> incrementSlotForWord : [correctAnswer == true]
repeatWord - -> listenWord
incrementSlotForWord - -> getNextWordFromSession
@enduml

PlantUML version 1.2017.15(Mon Jul 03 18:45:34 CEST 2017)
(GPL source distribution)
Java Runtime: OpenJDK Runtime Environment
JVM: OpenJDK 64-Bit Server VM
Java Version: 14.0.2+12
Operating System: Linux
OS Version: 5.4.0-42-generic
Default Encoding: UTF-8
Language: en
Country: US
--></g></svg>