<?xml version="1.0" encoding="UTF-8" standalone="no"?>
<svg xmlns="http://www.w3.org/2000/svg" xmlns:xlink="http://www.w3.org/1999/xlink" contentScriptType="application/ecmascript" contentStyleType="text/css" height="791px" preserveAspectRatio="none" style="width:1142px;height:791px;" version="1.1" viewBox="0 0 1142 791" width="1142px" zoomAndPan="magnify"><defs><filter height="300%" id="fjx9svjejnwid" width="300%" x="-1" y="-1"><feGaussianBlur result="blurOut" stdDeviation="2.0"/><feColorMatrix in="blurOut" result="blurOut2" type="matrix" values="0 0 0 0 0 0 0 0 0 0 0 0 0 0 0 0 0 0 .4 0"/><feOffset dx="4.0" dy="4.0" in="blurOut2" result="blurOut3"/><feBlend in="SourceGraphic" in2="blurOut3" mode="normal"/></filter></defs><g><ellipse cx="379" cy="16" fill="#000000" filter="url(#fjx9svjejnwid)" rx="10" ry="10" style="stroke: none; stroke-width: 1.0;"/><g id="IsInitial"><rect fill="#FEFECE" filter="url(#fjx9svjejnwid)" height="50" rx="12.5" ry="12.5" style="stroke: #A80036; stroke-width: 1.5;" width="71" x="343.5" y="87"/><line style="stroke: #A80036; stroke-width: 1.5;" x1="343.5" x2="414.5" y1="113.2969" y2="113.2969"/><text fill="#000000" font-family="sans-serif" font-size="14" lengthAdjust="spacingAndGlyphs" textLength="51" x="353.5" y="104.9951">IsInitial</text></g><g id="IsSpeaking"><rect fill="#FEFECE" filter="url(#fjx9svjejnwid)" height="50" rx="12.5" ry="12.5" style="stroke: #A80036; stroke-width: 1.5;" width="98" x="330" y="214"/><line style="stroke: #A80036; stroke-width: 1.5;" x1="330" x2="428" y1="240.2969" y2="240.2969"/><text fill="#000000" font-family="sans-serif" font-size="14" lengthAdjust="spacingAndGlyphs" textLength="78" x="340" y="231.9951">IsSpeaking</text></g><g id="IsListening"><rect fill="#FEFECE" filter="url(#fjx9svjejnwid)" height="50" rx="12.5" ry="12.5" style="stroke: #A80036; stroke-width: 1.5;" width="97" x="542.5" y="341"/><line style="stroke: #A80036; stroke-width: 1.5;" x1="542.5" x2="639.5" y1="367.2969" y2="367.2969"/><text fill="#000000" font-family="sans-serif" font-size="14" lengthAdjust="spacingAndGlyphs" textLength="77" x="552.5" y="358.9951">IsListening</text></g><g id="IsPaused"><rect fill="#FEFECE" filter="url(#fjx9svjejnwid)" height="50" rx="12.5" ry="12.5" style="stroke: #A80036; stroke-width: 1.5;" width="81" x="253.5" y="722"/><line style="stroke: #A80036; stroke-width: 1.5;" x1="253.5" x2="334.5" y1="748.2969" y2="748.2969"/><text fill="#000000" font-family="sans-serif" font-size="14" lengthAdjust="spacingAndGlyphs" textLength="61" x="263.5" y="739.9951">IsPaused</text></g><g id="IsEvaluating"><rect fill="#FEFECE" filter="url(#fjx9svjejnwid)" height="50" rx="12.5" ry="12.5" style="stroke: #A80036; stroke-width: 1.5;" width="105" x="525.5" y="468"/><line style="stroke: #A80036; stroke-width: 1.5;" x1="525.5" x2="630.5" y1="494.2969" y2="494.2969"/><text fill="#000000" font-family="sans-serif" font-size="14" lengthAdjust="spacingAndGlyphs" textLength="85" x="535.5" y="485.9951">IsEvaluating</text></g><g id="IsRepeating"><rect fill="#FEFECE" filter="url(#fjx9svjejnwid)" height="50" rx="12.5" ry="12.5" style="stroke: #A80036; stroke-width: 1.5;" width="106" x="619" y="595"/><line style="stroke: #A80036; stroke-width: 1.5;" x1="619" x2="725" y1="621.2969" y2="621.2969"/><text fill="#000000" font-family="sans-serif" font-size="14" lengthAdjust="spacingAndGlyphs" textLength="86" x="629" y="612.9951">IsRepeating</text></g><ellipse cx="526" cy="620" fill="none" filter="url(#fjx9svjejnwid)" rx="10" ry="10" style="stroke: #000000; stroke-width: 1.0;"/><ellipse cx="526.5" cy="620.5" fill="#000000" rx="6" ry="6" style="stroke: none; stroke-width: 1.0;"/><!--MD5=[b722f7d038586c632b6db566afa306ba]
link *start to IsInitial--><path d="M379,26.013 C379,38.698 379,62.409 379,81.57 " fill="none" id="*start-to-IsInitial" style="stroke: #A80036; stroke-width: 1.0;"/><polygon fill="#A80036" points="379,86.84,383,77.84,379,81.84,375,77.84,379,86.84" style="stroke: #A80036; stroke-width: 1.0;"/><!--MD5=[4c4a5f976aeaa2e656ac7232dcd51856]
link IsInitial to IsSpeaking--><path d="M379,137.101 C379,157.593 379,187.076 379,208.884 " fill="none" id="IsInitial-to-IsSpeaking" style="stroke: #A80036; stroke-width: 1.0;"/><polygon fill="#A80036" points="379,213.973,383,204.973,379,208.973,375,204.973,379,213.973" style="stroke: #A80036; stroke-width: 1.0;"/><text fill="#000000" font-family="sans-serif" font-size="13" lengthAdjust="spacingAndGlyphs" textLength="103" x="380" y="180.0669">[wordIndex = 0]</text><!--MD5=[7800f8457c48dc0182000313c57227ef]
link IsSpeaking to IsListening--><path d="M394.183,264.303 C404.809,279.566 420.246,298.634 438,311 C446.579,316.975 496.666,334.182 537.231,347.583 " fill="none" id="IsSpeaking-to-IsListening" style="stroke: #A80036; stroke-width: 1.0;"/><polygon fill="#A80036" points="542.128,349.197,534.8332,342.5799,537.3795,347.6313,532.3281,350.1776,542.128,349.197" style="stroke: #A80036; stroke-width: 1.0;"/><text fill="#000000" font-family="sans-serif" font-size="13" lengthAdjust="spacingAndGlyphs" textLength="76" x="439" y="307.0669">["tts-finish"]</text><!--MD5=[182f0256cc88ded02955af342071dd73]
link IsListening to IsSpeaking--><path d="M571.64,340.994 C558.407,325.854 539.742,306.81 520,294 C493.399,276.74 460.454,263.734 433.099,254.816 " fill="none" id="IsListening-to-IsSpeaking" style="stroke: #A80036; stroke-width: 1.0;"/><polygon fill="#A80036" points="428.06,253.198,435.4084,259.7556,432.8211,254.725,437.8516,252.1378,428.06,253.198" style="stroke: #A80036; stroke-width: 1.0;"/><text fill="#000000" font-family="sans-serif" font-size="13" lengthAdjust="spacingAndGlyphs" textLength="161" x="543" y="307.0669">["forward" wordIndex++]</text><!--MD5=[fc81702c8998236182a85482de480a35]
link IsSpeaking to IsSpeaking--><path d="M428.18,227.42 C447.195,226.906 463,230.766 463,239 C463,246.462 450.02,250.332 433.433,250.609 " fill="none" id="IsSpeaking-to-IsSpeaking" style="stroke: #A80036; stroke-width: 1.0;"/><polygon fill="#A80036" points="428.18,250.58,437.157,254.6314,433.1799,250.6086,437.2027,246.6315,428.18,250.58" style="stroke: #A80036; stroke-width: 1.0;"/><text fill="#000000" font-family="sans-serif" font-size="13" lengthAdjust="spacingAndGlyphs" textLength="161" x="469" y="243.5669">["forward" wordIndex++]</text><!--MD5=[c8622c207f058690190b3b8033109f8f]
link IsSpeaking to IsPaused--><path d="M329.853,245.981 C228.568,259.682 6,297.472 6,365 C6,365 6,365 6,621 C6,725.2707 166.821,743.5063 248.111,746.0636 " fill="none" id="IsSpeaking-to-IsPaused" style="stroke: #A80036; stroke-width: 1.0;"/><polygon fill="#A80036" points="253.347,746.2101,244.4625,741.9597,248.349,746.0701,244.2385,749.9565,253.347,746.2101" style="stroke: #A80036; stroke-width: 1.0;"/><text fill="#000000" font-family="sans-serif" font-size="13" lengthAdjust="spacingAndGlyphs" textLength="59" x="7" y="497.5669">["pause"]</text><!--MD5=[c12dd32a59b6a03b2454459c34b01cc9]
link IsPaused to IsSpeaking--><path d="M253.16,733.3627 C206.642,716.127 137,680.4038 137,621 C137,365 137,365 137,365 C137,281.069 253.328,253.434 324.679,244.377 " fill="none" id="IsPaused-to-IsSpeaking" style="stroke: #A80036; stroke-width: 1.0;"/><polygon fill="#A80036" points="329.736,243.756,320.3161,240.8812,324.7732,244.3646,321.2898,248.8217,329.736,243.756" style="stroke: #A80036; stroke-width: 1.0;"/><text fill="#000000" font-family="sans-serif" font-size="13" lengthAdjust="spacingAndGlyphs" textLength="47" x="138" y="497.5669">["play"]</text><!--MD5=[c12dd32a59b6a03b2454459c34b01cc9]
link IsPaused to IsSpeaking--><path d="M281.977,721.7596 C270.844,697.0465 256,657.291 256,621 C256,365 256,365 256,365 C256,322.022 293.399,288.434 326.953,266.948 " fill="none" id="IsPaused-to-IsSpeaking-1" style="stroke: #A80036; stroke-width: 1.0;"/><polygon fill="#A80036" points="331.445,264.128,321.6959,265.5261,327.2105,266.7867,325.9498,272.3013,331.445,264.128" style="stroke: #A80036; stroke-width: 1.0;"/><text fill="#000000" font-family="sans-serif" font-size="13" lengthAdjust="spacingAndGlyphs" textLength="161" x="257" y="497.5669">["forward" wordIndex++]</text><!--MD5=[cb0715dede82c3ccc0e0e0e28df9ac6f]
link IsListening to IsEvaluating--><path d="M579.399,391.166 C575.61,400.295 571.892,410.916 570,421 C567.436,434.669 568.652,449.983 570.829,462.88 " fill="none" id="IsListening-to-IsEvaluating" style="stroke: #A80036; stroke-width: 1.0;"/><polygon fill="#A80036" points="571.74,467.879,574.0601,458.3073,570.8428,462.9602,566.19,459.7428,571.74,467.879" style="stroke: #A80036; stroke-width: 1.0;"/><text fill="#000000" font-family="sans-serif" font-size="13" lengthAdjust="spacingAndGlyphs" textLength="123" x="571" y="434.0669">["onSpeechResult"]</text><!--MD5=[a7ff4f523d3306abad4117dd72065974]
link IsListening to IsPaused--><path d="M567.842,391.062 C537.193,422.244 480.742,477.419 427,518 C406.622,533.388 394.67,528.657 378,548 C334.312,598.692 310.626,675.4451 300.347,716.9279 " fill="none" id="IsListening-to-IsPaused" style="stroke: #A80036; stroke-width: 1.0;"/><polygon fill="#A80036" points="299.159,721.8078,305.1735,714.0087,300.3412,716.9496,297.4004,712.1172,299.159,721.8078" style="stroke: #A80036; stroke-width: 1.0;"/><text fill="#000000" font-family="sans-serif" font-size="13" lengthAdjust="spacingAndGlyphs" textLength="59" x="379" y="561.0669">["pause"]</text><!--MD5=[fc840f16fb415016028893b8ec5f3eb1]
link IsRepeating to IsListening--><path d="M687.033,594.915 C691.852,585.882 696.568,575.303 699,565 C713.704,502.712 732.647,475.442 699,421 C686.858,401.355 665.166,388.617 644.391,380.48 " fill="none" id="IsRepeating-to-IsListening" style="stroke: #A80036; stroke-width: 1.0;"/><polygon fill="#A80036" points="639.698,378.712,646.7103,385.6278,644.3771,380.4745,649.5303,378.1413,639.698,378.712" style="stroke: #A80036; stroke-width: 1.0;"/><text fill="#000000" font-family="sans-serif" font-size="13" lengthAdjust="spacingAndGlyphs" textLength="164" x="719" y="497.5669">["Wiederhole den Artikel"]</text><!--MD5=[93aeefde5397e669e0aa76141d2a4cd4]
link IsRepeating to IsSpeaking--><path d="M725.182,604.681 C773.281,589.563 843.754,561.77 892,518 C919.374,493.165 1012.68,400.413 966,341 C900.717,257.911 565.557,243.116 433.027,240.529 " fill="none" id="IsRepeating-to-IsSpeaking" style="stroke: #A80036; stroke-width: 1.0;"/><polygon fill="#A80036" points="428.017,240.435,436.9412,244.6015,433.0161,240.5279,437.0897,236.6029,428.017,240.435" style="stroke: #A80036; stroke-width: 1.0;"/><text fill="#000000" font-family="sans-serif" font-size="13" lengthAdjust="spacingAndGlyphs" textLength="161" x="969" y="434.0669">["forward" wordIndex++]</text><!--MD5=[c650297cbb4d1388201d33fba909ac09]
link IsRepeating to IsPaused--><path d="M618.644,638.644 C544.017,663.322 409.759,707.7198 339.567,730.9315 " fill="none" id="IsRepeating-to-IsPaused" style="stroke: #A80036; stroke-width: 1.0;"/><polygon fill="#A80036" points="334.626,732.5656,344.4268,733.5373,339.3731,730.9956,341.9148,725.9419,334.626,732.5656" style="stroke: #A80036; stroke-width: 1.0;"/><text fill="#000000" font-family="sans-serif" font-size="13" lengthAdjust="spacingAndGlyphs" textLength="59" x="507" y="688.0669">["pause"]</text><!--MD5=[c934c41297890df24106e53bc2146ed1]
link IsEvaluating to IsRepeating--><path d="M572.649,518.283 C570.774,532.796 570.844,551.062 579,565 C587.048,578.754 600.067,589.339 613.848,597.34 " fill="none" id="IsEvaluating-to-IsRepeating" style="stroke: #A80036; stroke-width: 1.0;"/><polygon fill="#A80036" points="618.545,599.955,612.6263,592.083,614.1761,597.5234,608.7357,599.0732,618.545,599.955" style="stroke: #A80036; stroke-width: 1.0;"/><text fill="#000000" font-family="sans-serif" font-size="13" lengthAdjust="spacingAndGlyphs" textLength="114" x="580" y="561.0669">["onSpeechError"]</text><!--MD5=[ad34980d9fd37cbb1cbe840ba5de8b38]
link IsEvaluating to IsSpeaking--><path d="M630.783,482.478 C656.809,474.932 686.155,461.556 703,438 C858.815,220.11 735.651,320.608 713,294 C677.721,252.559 518.508,242.818 433.269,240.599 " fill="none" id="IsEvaluating-to-IsSpeaking" style="stroke: #A80036; stroke-width: 1.0;"/><polygon fill="#A80036" points="428.265,240.475,437.164,244.6949,433.2635,240.5979,437.3606,236.6973,428.265,240.475" style="stroke: #A80036; stroke-width: 1.0;"/><text fill="#000000" font-family="sans-serif" font-size="13" lengthAdjust="spacingAndGlyphs" textLength="189" x="768" y="370.5669">["articleFound" wordIndex++]</text><!--MD5=[ad34980d9fd37cbb1cbe840ba5de8b38]
link IsEvaluating to IsSpeaking--><path d="M525.141,483.723 C473.516,472.523 397.67,447.056 362,391 C338.474,354.028 352.637,301.459 365.483,269.101 " fill="none" id="IsEvaluating-to-IsSpeaking-1" style="stroke: #A80036; stroke-width: 1.0;"/><polygon fill="#A80036" points="367.527,264.087,360.4241,270.9097,365.6386,268.7167,367.8315,273.9311,367.527,264.087" style="stroke: #A80036; stroke-width: 1.0;"/><text fill="#000000" font-family="sans-serif" font-size="13" lengthAdjust="spacingAndGlyphs" textLength="161" x="363" y="370.5669">["forward" wordIndex++]</text><!--MD5=[b8c5715c06663e23c7db0445822240f1]
link IsEvaluating to IsPaused--><path d="M525.476,512.439 C504.965,521.218 482.083,533.097 464,548 C402.674,598.543 412.3,633.975 358,692 C349.395,701.1951 339.286,710.3504 329.675,718.4399 " fill="none" id="IsEvaluating-to-IsPaused" style="stroke: #A80036; stroke-width: 1.0;"/><polygon fill="#A80036" points="325.593,721.8386,335.0692,719.155,329.4359,718.6398,329.9511,713.0064,325.593,721.8386" style="stroke: #A80036; stroke-width: 1.0;"/><text fill="#000000" font-family="sans-serif" font-size="13" lengthAdjust="spacingAndGlyphs" textLength="59" x="422" y="624.5669">["pause"]</text><!--MD5=[866c4dedd10ae94164f8d48297e3aadd]
link IsEvaluating to *end--><path d="M525.302,508.798 C506.009,517.048 486.181,529.514 475,548 C460.446,572.063 493.68,598.489 513.148,611.251 " fill="none" id="IsEvaluating-to-*end" style="stroke: #A80036; stroke-width: 1.0;"/><polygon fill="#A80036" points="517.763,614.191,512.3237,605.9804,513.5467,611.5035,508.0236,612.7265,517.763,614.191" style="stroke: #A80036; stroke-width: 1.0;"/><text fill="#000000" font-family="sans-serif" font-size="13" lengthAdjust="spacingAndGlyphs" textLength="62" x="476" y="561.0669">IsFinished</text><!--MD5=[31349eec453039b00629437b74bb43f0]
@startuml
[*] - -> IsInitial
IsInitial - -> IsSpeaking : [wordIndex = 0]

IsSpeaking - -> IsListening :["tts-finish"]
IsSpeaking - -> IsSpeaking : ["forward" wordIndex++]
IsSpeaking - -> IsPaused : ["pause"]

IsListening - -> IsEvaluating : ["onSpeechResult"]
IsListening - -> IsSpeaking : ["forward" wordIndex++]
IsListening - -> IsPaused : ["pause"]

IsPaused - -> IsSpeaking : ["play"]
IsPaused - -> IsSpeaking : ["forward" wordIndex++]

IsRepeating - -> IsListening : ["Wiederhole den Artikel"]
IsRepeating - -> IsSpeaking : ["forward" wordIndex++]
IsRepeating - -> IsPaused : ["pause"]

IsEvaluating - -> IsRepeating : ["onSpeechError"]
IsEvaluating - -> IsSpeaking: ["articleFound" wordIndex++]
IsEvaluating - -> IsSpeaking : ["forward" wordIndex++]
IsEvaluating - -> IsPaused : ["pause"]
IsEvaluating - -> [*]: IsFinished
@enduml

PlantUML version 1.2020.17beta5(Unknown compile time)
(GPL source distribution)
Java Runtime: Java(TM) SE Runtime Environment
JVM: Java HotSpot(TM) 64-Bit Server VM
Default Encoding: UTF-8
Language: en
Country: US
--></g></svg>