<?xml version="1.0" encoding="UTF-8" standalone="no"?>
<svg xmlns="http://www.w3.org/2000/svg" xmlns:xlink="http://www.w3.org/1999/xlink" contentScriptType="application/ecmascript" contentStyleType="text/css" height="1056px" preserveAspectRatio="none" style="width:1175px;height:1056px;" version="1.1" viewBox="0 0 1175 1056" width="1175px" zoomAndPan="magnify"><defs><filter height="300%" id="f14ft8r3oe61q9" width="300%" x="-1" y="-1"><feGaussianBlur result="blurOut" stdDeviation="2.0"/><feColorMatrix in="blurOut" result="blurOut2" type="matrix" values="0 0 0 0 0 0 0 0 0 0 0 0 0 0 0 0 0 0 .4 0"/><feOffset dx="4.0" dy="4.0" in="blurOut2" result="blurOut3"/><feBlend in="SourceGraphic" in2="blurOut3" mode="normal"/></filter></defs><g><ellipse cx="911.773" cy="16" fill="#000000" filter="url(#f14ft8r3oe61q9)" rx="10" ry="10" style="stroke: none; stroke-width: 1.0;"/><g id="startSession"><rect fill="#FEFECE" filter="url(#f14ft8r3oe61q9)" height="50" rx="12.5" ry="12.5" style="stroke: #A80036; stroke-width: 1.5;" width="109" x="857.273" y="87"/><line style="stroke: #A80036; stroke-width: 1.5;" x1="857.273" x2="966.273" y1="113.2969" y2="113.2969"/><text fill="#000000" font-family="sans-serif" font-size="14" lengthAdjust="spacingAndGlyphs" textLength="89" x="867.273" y="104.9951">startSession</text></g><g id="getNextWordFromSession"><rect fill="#FEFECE" filter="url(#f14ft8r3oe61q9)" height="50" rx="12.5" ry="12.5" style="stroke: #A80036; stroke-width: 1.5;" width="208" x="807.773" y="198"/><line style="stroke: #A80036; stroke-width: 1.5;" x1="807.773" x2="1015.773" y1="224.2969" y2="224.2969"/><text fill="#000000" font-family="sans-serif" font-size="14" lengthAdjust="spacingAndGlyphs" textLength="188" x="817.773" y="215.9951">getNextWordFromSession</text></g><g id="speakWord"><rect fill="#FEFECE" filter="url(#f14ft8r3oe61q9)" height="50" rx="12.5" ry="12.5" style="stroke: #A80036; stroke-width: 1.5;" width="101" x="687.273" y="325"/><line style="stroke: #A80036; stroke-width: 1.5;" x1="687.273" x2="788.273" y1="351.2969" y2="351.2969"/><text fill="#000000" font-family="sans-serif" font-size="14" lengthAdjust="spacingAndGlyphs" textLength="81" x="697.273" y="342.9951">speakWord</text></g><ellipse cx="864.773" cy="350" fill="none" filter="url(#f14ft8r3oe61q9)" rx="10" ry="10" style="stroke: #000000; stroke-width: 1.0;"/><ellipse cx="865.273" cy="350.5" fill="#000000" rx="6" ry="6" style="stroke: none; stroke-width: 1.0;"/><g id="listenWord"><rect fill="#FEFECE" filter="url(#f14ft8r3oe61q9)" height="50" rx="12.5" ry="12.5" style="stroke: #A80036; stroke-width: 1.5;" width="98" x="642.773" y="436"/><line style="stroke: #A80036; stroke-width: 1.5;" x1="642.773" x2="740.773" y1="462.2969" y2="462.2969"/><text fill="#000000" font-family="sans-serif" font-size="14" lengthAdjust="spacingAndGlyphs" textLength="78" x="652.773" y="453.9951">listenWord</text></g><g id="checkAnswer"><rect fill="#FEFECE" filter="url(#f14ft8r3oe61q9)" height="50" rx="12.5" ry="12.5" style="stroke: #A80036; stroke-width: 1.5;" width="115" x="414.273" y="547"/><line style="stroke: #A80036; stroke-width: 1.5;" x1="414.273" x2="529.273" y1="573.2969" y2="573.2969"/><text fill="#000000" font-family="sans-serif" font-size="14" lengthAdjust="spacingAndGlyphs" textLength="95" x="424.273" y="564.9951">checkAnswer</text></g><g id="repeatWord"><rect fill="#FEFECE" filter="url(#f14ft8r3oe61q9)" height="50" rx="12.5" ry="12.5" style="stroke: #A80036; stroke-width: 1.5;" width="107" x="630.273" y="775"/><line style="stroke: #A80036; stroke-width: 1.5;" x1="630.273" x2="737.273" y1="801.2969" y2="801.2969"/><text fill="#000000" font-family="sans-serif" font-size="14" lengthAdjust="spacingAndGlyphs" textLength="87" x="640.273" y="792.9951">repeatWord</text></g><polygon fill="#FEFECE" filter="url(#f14ft8r3oe61q9)" points="369.773,674,381.773,686,369.773,698,357.773,686,369.773,674" style="stroke: #A80036; stroke-width: 1.5;"/><g id="updateTimestampForWord"><rect fill="#FEFECE" filter="url(#f14ft8r3oe61q9)" height="50" rx="12.5" ry="12.5" style="stroke: #A80036; stroke-width: 1.5;" width="214" x="160.773" y="775"/><line style="stroke: #A80036; stroke-width: 1.5;" x1="160.773" x2="374.773" y1="801.2969" y2="801.2969"/><text fill="#000000" font-family="sans-serif" font-size="14" lengthAdjust="spacingAndGlyphs" textLength="194" x="170.773" y="792.9951">updateTimestampForWord</text></g><polygon fill="#FEFECE" filter="url(#f14ft8r3oe61q9)" points="958.773,886,970.773,898,958.773,910,946.773,898,958.773,886" style="stroke: #A80036; stroke-width: 1.5;"/><g id="incrementSlotForWord"><rect fill="#FEFECE" filter="url(#f14ft8r3oe61q9)" height="50" rx="12.5" ry="12.5" style="stroke: #A80036; stroke-width: 1.5;" width="185" x="971.273" y="987"/><line style="stroke: #A80036; stroke-width: 1.5;" x1="971.273" x2="1156.273" y1="1013.2969" y2="1013.2969"/><text fill="#000000" font-family="sans-serif" font-size="14" lengthAdjust="spacingAndGlyphs" textLength="165" x="981.273" y="1004.9951">incrementSlotForWord</text></g><!--MD5=[beb74a4cc8a3ae782e647c9a41180898]
link *start to startSession--><path d="M911.773,26.01 C911.773,38.698 911.773,62.409 911.773,81.57 " fill="none" id="*start-to-startSession" style="stroke: #A80036; stroke-width: 1.0;"/><polygon fill="#A80036" points="911.773,86.84,915.773,77.84,911.773,81.84,907.773,77.84,911.773,86.84" style="stroke: #A80036; stroke-width: 1.0;"/><!--MD5=[a25f854753817014a587059363fb3d7b]
link startSession to getNextWordFromSession--><path d="M911.773,137.191 C911.773,153.56 911.773,175.279 911.773,192.64 " fill="none" id="startSession-to-getNextWordFromSession" style="stroke: #A80036; stroke-width: 1.0;"/><polygon fill="#A80036" points="911.773,197.877,915.773,188.877,911.773,192.877,907.773,188.877,911.773,197.877" style="stroke: #A80036; stroke-width: 1.0;"/><!--MD5=[b01be1187ef31767420a1c6baee422b3]
link getNextWordFromSession to speakWord--><path d="M878.224,248.101 C848.857,269.198 806.223,299.826 775.64,321.796 " fill="none" id="getNextWordFromSession-to-speakWord" style="stroke: #A80036; stroke-width: 1.0;"/><polygon fill="#A80036" points="771.219,324.973,780.8623,322.9715,775.28,322.0561,776.1954,316.4738,771.219,324.973" style="stroke: #A80036; stroke-width: 1.0;"/><!--MD5=[3e682172a7f02acbf17f164fae5c15ba]
link getNextWordFromSession to *end--><path d="M882.31,248.071 C874.06,256.567 866.155,266.818 861.773,278 C854.396,296.824 857.693,320.642 861.021,335.347 " fill="none" id="getNextWordFromSession-to-*end" style="stroke: #A80036; stroke-width: 1.0;"/><polygon fill="#A80036" points="862.229,340.326,863.9926,330.6363,861.0493,335.4672,856.2184,332.5239,862.229,340.326" style="stroke: #A80036; stroke-width: 1.0;"/><text fill="#000000" font-family="sans-serif" font-size="13" lengthAdjust="spacingAndGlyphs" textLength="69" x="862.773" y="291.0669">End Of List</text><!--MD5=[23a321861890b9fd1c83efabd21a55dd]
link speakWord to listenWord--><path d="M727.564,375.191 C720.596,391.701 711.331,413.654 703.974,431.088 " fill="none" id="speakWord-to-listenWord" style="stroke: #A80036; stroke-width: 1.0;"/><polygon fill="#A80036" points="701.953,435.877,709.1383,429.1412,703.8976,431.2706,701.7681,426.0299,701.953,435.877" style="stroke: #A80036; stroke-width: 1.0;"/><!--MD5=[4d9bd95efdf271aa0ddb9a1040444039]
link listenWord to checkAnswer--><path d="M643.22,486.055 C608.343,503.335 561.331,526.628 525.357,544.451 " fill="none" id="listenWord-to-checkAnswer" style="stroke: #A80036; stroke-width: 1.0;"/><polygon fill="#A80036" points="520.581,546.818,530.4212,546.406,525.0611,544.5979,526.8692,539.2378,520.581,546.818" style="stroke: #A80036; stroke-width: 1.0;"/><!--MD5=[b0617e5ff93e5b63d39399961c577199]
link listenWord to repeatWord--><path d="M689.668,486.022 C686.971,518.12 682.445,576.786 680.773,627 C680.521,634.551 680.7,636.445 680.773,644 C681.196,687.76 682.292,738.459 683.035,769.63 " fill="none" id="listenWord-to-repeatWord" style="stroke: #A80036; stroke-width: 1.0;"/><polygon fill="#A80036" points="683.16,774.839,686.9428,765.7456,683.04,769.8404,678.9452,765.9376,683.16,774.839" style="stroke: #A80036; stroke-width: 1.0;"/><text fill="#000000" font-family="sans-serif" font-size="13" lengthAdjust="spacingAndGlyphs" textLength="162" x="681.773" y="640.0669">[speechRecognitionError]</text><!--MD5=[ae27e0664945ebd67bbfe49e988a99f4]
link repeatWord to listenWord--><path d="M724.695,774.8 C764.864,748.409 823.647,702.076 848.773,644 C876.654,579.555 800.051,521.197 744.273,488.768 " fill="none" id="repeatWord-to-listenWord" style="stroke: #A80036; stroke-width: 1.0;"/><polygon fill="#A80036" points="739.621,486.095,745.4335,494.0458,743.9568,488.5851,749.4176,487.1085,739.621,486.095" style="stroke: #A80036; stroke-width: 1.0;"/><!--MD5=[d0da3ee1c18903b046c5db8216d45861]
link checkAnswer to a--><path d="M449.891,597.027 C427.874,621.203 394.968,657.334 379.054,674.809 " fill="none" id="checkAnswer-to-a" style="stroke: #A80036; stroke-width: 1.0;"/><polygon fill="#A80036" points="375.39,678.831,384.4074,674.8704,378.7567,675.1343,378.4927,669.4836,375.39,678.831" style="stroke: #A80036; stroke-width: 1.0;"/><!--MD5=[c715ce7bde1ce10d3126eae6cf26546b]
link a to repeatWord--><path d="M366.354,694.819 C361.591,707.062 354.806,730.823 366.773,745 C399.145,783.354 542.42,794.47 624.842,797.689 " fill="none" id="a-to-repeatWord" style="stroke: #A80036; stroke-width: 1.0;"/><polygon fill="#A80036" points="630.181,797.89,621.3382,793.5535,625.1846,797.7015,621.0366,801.5478,630.181,797.89" style="stroke: #A80036; stroke-width: 1.0;"/><text fill="#000000" font-family="sans-serif" font-size="13" lengthAdjust="spacingAndGlyphs" textLength="289" x="367.773" y="741.0669">[isNoArticleFound || answerWordCount &gt;= 5]</text><!--MD5=[fb847ca0f080c73f30f78183f00e3ac7]
link a to updateTimestampForWord--><path d="M359.027,687.527 C305.147,690.278 66.118,703.793 44.7726,728 C6,771.971 81.7738,788.931 155.289,795.359 " fill="none" id="a-to-updateTimestampForWord" style="stroke: #A80036; stroke-width: 1.0;"/><polygon fill="#A80036" points="160.577,795.804,151.9435,791.0645,155.5946,795.3853,151.2737,799.0364,160.577,795.804" style="stroke: #A80036; stroke-width: 1.0;"/><text fill="#000000" font-family="sans-serif" font-size="13" lengthAdjust="spacingAndGlyphs" textLength="280" x="45.7726" y="741.0669">[isArticleFound  &amp;&amp;  answerWordCount &lt; 5]</text><!--MD5=[dd685b2ff91699552c45d0657e87a6cd]
link updateTimestampForWord to c--><path d="M374.983,815.895 C546.41,839.711 870.436,884.728 943.766,894.915 " fill="none" id="updateTimestampForWord-to-c" style="stroke: #A80036; stroke-width: 1.0;"/><polygon fill="#A80036" points="948.98,895.639,940.6165,890.4378,944.0276,894.9505,939.5149,898.3616,948.98,895.639" style="stroke: #A80036; stroke-width: 1.0;"/><!--MD5=[77c523874fc213083df9ca5a3d0616bd]
link c to getNextWordFromSession--><path d="M958.773,885.768 C958.773,867.844 958.773,831.667 958.773,801 C958.773,349 958.773,349 958.773,349 C958.773,314.296 942.704,277.441 929.358,252.814 " fill="none" id="c-to-getNextWordFromSession" style="stroke: #A80036; stroke-width: 1.0;"/><polygon fill="#A80036" points="926.902,248.361,927.7473,258.1735,929.3173,252.7389,934.752,254.309,926.902,248.361" style="stroke: #A80036; stroke-width: 1.0;"/><text fill="#000000" font-family="sans-serif" font-size="13" lengthAdjust="spacingAndGlyphs" textLength="129" x="959.773" y="576.5669">[isNotCorrectArticle]</text><!--MD5=[29406fc7e7255a50a3a0f574b98026dd]
link c to incrementSlotForWord--><path d="M963.722,905.274 C972.348,916.11 990.834,938.9102 1007.773,957 C1016.011,965.799 1025.312,975.0262 1033.929,983.3136 " fill="none" id="c-to-incrementSlotForWord" style="stroke: #A80036; stroke-width: 1.0;"/><polygon fill="#A80036" points="1037.579,986.8037,1033.844,977.6905,1033.9673,983.3461,1028.3117,983.4693,1037.579,986.8037" style="stroke: #A80036; stroke-width: 1.0;"/><text fill="#000000" font-family="sans-serif" font-size="13" lengthAdjust="spacingAndGlyphs" textLength="107" x="1008.773" y="953.0669">[isCorrectArticle]</text><!--MD5=[7b31bb84261e9123a2e7bdfe95324bbf]
link incrementSlotForWord to getNextWordFromSession--><path d="M1094.089,986.8215 C1116.369,966.1474 1142.769,934.216 1142.769,899 C1142.769,349 1142.769,349 1142.769,349 C1142.769,288.459 1080.639,257.093 1020.823,240.923 " fill="none" id="incrementSlotForWord-to-getNextWordFromSession" style="stroke: #A80036; stroke-width: 1.0;"/><polygon fill="#A80036" points="1015.785,239.595,1023.4665,245.759,1020.6195,240.8708,1025.5077,238.0238,1015.785,239.595" style="stroke: #A80036; stroke-width: 1.0;"/><!--MD5=[5c9e1957d2678018221fedd833f5c132]
@startuml
[*] - -> startSession
startSession - -> getNextWordFromSession
getNextWordFromSession - -> speakWord
getNextWordFromSession - -> [*]: End Of List
speakWord - -> listenWord
listenWord - -> checkAnswer
listenWord - -> repeatWord : [speechRecognitionError]
state a <<choice>> 
checkAnswer - -> a 
a - -> repeatWord : [isNoArticleFound || answerWordCount >= 5]
a - -> updateTimestampForWord : [isArticleFound  &&  answerWordCount < 5]
state c <<choice>>
updateTimestampForWord - -> c
c - -> getNextWordFromSession : [isNotCorrectArticle]
c - -> incrementSlotForWord : [isCorrectArticle]
repeatWord - -> listenWord
incrementSlotForWord - -> getNextWordFromSession
@enduml

PlantUML version 1.2020.16(Sun Aug 23 20:20:43 UTC 2020)
(GPL source distribution)
Java Runtime: Java(TM) SE Runtime Environment
JVM: Java HotSpot(TM) 64-Bit Server VM
Default Encoding: UTF-8
Language: en
Country: US
--></g></svg>