<?xml version="1.0" encoding="UTF-8" standalone="no"?>
<svg xmlns="http://www.w3.org/2000/svg" xmlns:xlink="http://www.w3.org/1999/xlink" contentScriptType="application/ecmascript" contentStyleType="text/css" height="664px" preserveAspectRatio="none" style="width:1354px;height:664px;" version="1.1" viewBox="0 0 1354 664" width="1354px" zoomAndPan="magnify"><defs><filter height="300%" id="f16fvzpwrzzk7u" width="300%" x="-1" y="-1"><feGaussianBlur result="blurOut" stdDeviation="2.0"/><feColorMatrix in="blurOut" result="blurOut2" type="matrix" values="0 0 0 0 0 0 0 0 0 0 0 0 0 0 0 0 0 0 .4 0"/><feOffset dx="4.0" dy="4.0" in="blurOut2" result="blurOut3"/><feBlend in="SourceGraphic" in2="blurOut3" mode="normal"/></filter></defs><g><ellipse cx="443.186" cy="16" fill="#000000" filter="url(#f16fvzpwrzzk7u)" rx="10" ry="10" style="stroke: none; stroke-width: 1.0;"/><g id="IsInitial"><rect fill="#FEFECE" filter="url(#f16fvzpwrzzk7u)" height="50" rx="12.5" ry="12.5" style="stroke: #A80036; stroke-width: 1.5;" width="71" x="407.686" y="87"/><line style="stroke: #A80036; stroke-width: 1.5;" x1="407.686" x2="478.686" y1="113.2969" y2="113.2969"/><text fill="#000000" font-family="sans-serif" font-size="14" lengthAdjust="spacingAndGlyphs" textLength="51" x="417.686" y="104.9951">IsInitial</text></g><g id="IsSpeaking"><rect fill="#FEFECE" filter="url(#f16fvzpwrzzk7u)" height="50" rx="12.5" ry="12.5" style="stroke: #A80036; stroke-width: 1.5;" width="98" x="394.186" y="214"/><line style="stroke: #A80036; stroke-width: 1.5;" x1="394.186" x2="492.186" y1="240.2969" y2="240.2969"/><text fill="#000000" font-family="sans-serif" font-size="14" lengthAdjust="spacingAndGlyphs" textLength="78" x="404.186" y="231.9951">IsSpeaking</text></g><g id="IsListening"><rect fill="#FEFECE" filter="url(#f16fvzpwrzzk7u)" height="50" rx="12.5" ry="12.5" style="stroke: #A80036; stroke-width: 1.5;" width="97" x="610.686" y="341"/><line style="stroke: #A80036; stroke-width: 1.5;" x1="610.686" x2="707.686" y1="367.2969" y2="367.2969"/><text fill="#000000" font-family="sans-serif" font-size="14" lengthAdjust="spacingAndGlyphs" textLength="77" x="620.686" y="358.9951">IsListening</text></g><g id="IsPaused"><rect fill="#FEFECE" filter="url(#f16fvzpwrzzk7u)" height="50" rx="12.5" ry="12.5" style="stroke: #A80036; stroke-width: 1.5;" width="81" x="244.686" y="595"/><line style="stroke: #A80036; stroke-width: 1.5;" x1="244.686" x2="325.686" y1="621.2969" y2="621.2969"/><text fill="#000000" font-family="sans-serif" font-size="14" lengthAdjust="spacingAndGlyphs" textLength="61" x="254.686" y="612.9951">IsPaused</text></g><g id="IsEvaluating"><rect fill="#FEFECE" filter="url(#f16fvzpwrzzk7u)" height="50" rx="12.5" ry="12.5" style="stroke: #A80036; stroke-width: 1.5;" width="105" x="947.686" y="468"/><line style="stroke: #A80036; stroke-width: 1.5;" x1="947.686" x2="1052.686" y1="494.2969" y2="494.2969"/><text fill="#000000" font-family="sans-serif" font-size="14" lengthAdjust="spacingAndGlyphs" textLength="85" x="957.686" y="485.9951">IsEvaluating</text></g><g id="IsRepeating"><rect fill="#FEFECE" filter="url(#f16fvzpwrzzk7u)" height="50" rx="12.5" ry="12.5" style="stroke: #A80036; stroke-width: 1.5;" width="106" x="379.186" y="468"/><line style="stroke: #A80036; stroke-width: 1.5;" x1="379.186" x2="485.186" y1="494.2969" y2="494.2969"/><text fill="#000000" font-family="sans-serif" font-size="14" lengthAdjust="spacingAndGlyphs" textLength="86" x="389.186" y="485.9951">IsRepeating</text></g><ellipse cx="1000.186" cy="620" fill="none" filter="url(#f16fvzpwrzzk7u)" rx="10" ry="10" style="stroke: #000000; stroke-width: 1.0;"/><ellipse cx="1000.686" cy="620.5" fill="#000000" rx="6" ry="6" style="stroke: none; stroke-width: 1.0;"/><!--MD5=[b722f7d038586c632b6db566afa306ba]
link *start to IsInitial--><path d="M443.186,26.013 C443.186,38.698 443.186,62.409 443.186,81.57 " fill="none" id="*start-to-IsInitial" style="stroke: #A80036; stroke-width: 1.0;"/><polygon fill="#A80036" points="443.186,86.84,447.186,77.84,443.186,81.84,439.186,77.84,443.186,86.84" style="stroke: #A80036; stroke-width: 1.0;"/><!--MD5=[4c4a5f976aeaa2e656ac7232dcd51856]
link IsInitial to IsSpeaking--><path d="M443.186,137.101 C443.186,157.593 443.186,187.076 443.186,208.884 " fill="none" id="IsInitial-to-IsSpeaking" style="stroke: #A80036; stroke-width: 1.0;"/><polygon fill="#A80036" points="443.186,213.973,447.186,204.973,443.186,208.973,439.186,204.973,443.186,213.973" style="stroke: #A80036; stroke-width: 1.0;"/><text fill="#000000" font-family="sans-serif" font-size="13" lengthAdjust="spacingAndGlyphs" textLength="103" x="444.186" y="180.0669">[wordIndex = 0]</text><!--MD5=[7800f8457c48dc0182000313c57227ef]
link IsSpeaking to IsListening--><path d="M466.287,264.08 C481.633,279.061 502.825,297.9 524.186,311 C549.509,326.529 580.076,339.192 605.717,348.342 " fill="none" id="IsSpeaking-to-IsListening" style="stroke: #A80036; stroke-width: 1.0;"/><polygon fill="#A80036" points="610.444,350.009,603.2871,343.243,605.7287,348.3458,600.626,350.7874,610.444,350.009" style="stroke: #A80036; stroke-width: 1.0;"/><text fill="#000000" font-family="sans-serif" font-size="13" lengthAdjust="spacingAndGlyphs" textLength="76" x="525.186" y="307.0669">["tts-finish"]</text><!--MD5=[182f0256cc88ded02955af342071dd73]
link IsListening to IsSpeaking--><path d="M646.353,340.889 C637.052,325.509 623.155,306.235 606.186,294 C573.921,270.734 531.006,257.051 497.309,249.282 " fill="none" id="IsListening-to-IsSpeaking" style="stroke: #A80036; stroke-width: 1.0;"/><polygon fill="#A80036" points="492.407,248.178,500.3084,254.0574,497.2849,249.2764,502.0659,246.2529,492.407,248.178" style="stroke: #A80036; stroke-width: 1.0;"/><text fill="#000000" font-family="sans-serif" font-size="13" lengthAdjust="spacingAndGlyphs" textLength="161" x="625.186" y="307.0669">["forward" wordIndex++]</text><!--MD5=[fc81702c8998236182a85482de480a35]
link IsSpeaking to IsSpeaking--><path d="M492.367,227.42 C511.382,226.906 527.186,230.766 527.186,239 C527.186,246.462 514.206,250.332 497.62,250.609 " fill="none" id="IsSpeaking-to-IsSpeaking" style="stroke: #A80036; stroke-width: 1.0;"/><polygon fill="#A80036" points="492.367,250.58,501.3452,254.6288,497.3669,250.6071,501.3886,246.6289,492.367,250.58" style="stroke: #A80036; stroke-width: 1.0;"/><text fill="#000000" font-family="sans-serif" font-size="13" lengthAdjust="spacingAndGlyphs" textLength="161" x="533.186" y="243.5669">["forward" wordIndex++]</text><!--MD5=[c8622c207f058690190b3b8033109f8f]
link IsSpeaking to IsPaused--><path d="M394.038,242.764 C311.417,248.222 149.112,262.68 102.1863,294 C47.0909,330.773 42.1983,357.256 24.1863,421 C6,485.361 50.6998,525.576 102.1863,565 C142.333,595.7408 199.667,609.021 239.418,614.7336 " fill="none" id="IsSpeaking-to-IsPaused" style="stroke: #A80036; stroke-width: 1.0;"/><polygon fill="#A80036" points="244.663,615.4581,236.2951,610.264,239.71,614.7738,235.2002,618.1887,244.663,615.4581" style="stroke: #A80036; stroke-width: 1.0;"/><text fill="#000000" font-family="sans-serif" font-size="13" lengthAdjust="spacingAndGlyphs" textLength="59" x="25.1863" y="434.0669">["pause"]</text><!--MD5=[c12dd32a59b6a03b2454459c34b01cc9]
link IsPaused to IsSpeaking--><path d="M244.682,602.1196 C226.655,593.1075 206.165,580.6236 191.186,565 C156.932,529.27 110.2516,482.125 125.186,421 C140.284,359.206 140.597,332.563 191.186,294 C221.687,270.75 324.343,254.423 388.839,246.174 " fill="none" id="IsPaused-to-IsSpeaking" style="stroke: #A80036; stroke-width: 1.0;"/><polygon fill="#A80036" points="394.186,245.497,384.7545,242.6602,389.2257,246.1256,385.7603,250.5968,394.186,245.497" style="stroke: #A80036; stroke-width: 1.0;"/><text fill="#000000" font-family="sans-serif" font-size="13" lengthAdjust="spacingAndGlyphs" textLength="47" x="126.186" y="434.0669">["play"]</text><!--MD5=[c12dd32a59b6a03b2454459c34b01cc9]
link IsPaused to IsSpeaking--><path d="M274.107,594.787 C258.212,556.3856 233.436,479.842 258.186,421 C286.709,353.19 354.414,298.085 399.519,267.168 " fill="none" id="IsPaused-to-IsSpeaking-1" style="stroke: #A80036; stroke-width: 1.0;"/><polygon fill="#A80036" points="403.811,264.252,394.1188,266.0014,399.6753,267.062,398.6147,272.6185,403.811,264.252" style="stroke: #A80036; stroke-width: 1.0;"/><text fill="#000000" font-family="sans-serif" font-size="13" lengthAdjust="spacingAndGlyphs" textLength="161" x="259.186" y="434.0669">["forward" wordIndex++]</text><!--MD5=[cb0715dede82c3ccc0e0e0e28df9ac6f]
link IsListening to IsEvaluating--><path d="M707.703,381.008 C741.113,391.085 786.314,405.571 825.186,421 C841.632,427.528 844.93,431.014 861.186,438 C887.611,449.355 917.278,461.024 942.396,470.597 " fill="none" id="IsListening-to-IsEvaluating" style="stroke: #A80036; stroke-width: 1.0;"/><polygon fill="#A80036" points="947.357,472.482,940.3649,465.5459,942.6831,470.7059,937.5231,473.0241,947.357,472.482" style="stroke: #A80036; stroke-width: 1.0;"/><text fill="#000000" font-family="sans-serif" font-size="13" lengthAdjust="spacingAndGlyphs" textLength="123" x="862.186" y="434.0669">["onSpeechResult"]</text><!--MD5=[48c62200b08226b3773194bc69000c53]
link IsListening to IsRepeating--><path d="M654.25,391.28 C649.896,406.732 642.011,426.021 628.186,438 C589.993,471.094 533.211,484.061 490.581,489.063 " fill="none" id="IsListening-to-IsRepeating" style="stroke: #A80036; stroke-width: 1.0;"/><polygon fill="#A80036" points="485.455,489.634,494.843,492.6115,490.4242,489.0796,493.956,484.6608,485.455,489.634" style="stroke: #A80036; stroke-width: 1.0;"/><text fill="#000000" font-family="sans-serif" font-size="13" lengthAdjust="spacingAndGlyphs" textLength="114" x="643.186" y="434.0669">["onSpeechError"]</text><!--MD5=[fc840f16fb415016028893b8ec5f3eb1]
link IsRepeating to IsListening--><path d="M433.752,467.774 C436.025,452.345 441.437,433.061 454.186,421 C494.123,383.221 521.06,405.137 574.186,391 C584.246,388.323 594.949,385.378 605.245,382.495 " fill="none" id="IsRepeating-to-IsListening" style="stroke: #A80036; stroke-width: 1.0;"/><polygon fill="#A80036" points="610.263,381.086,600.5169,379.6672,605.4491,382.4373,602.679,387.3695,610.263,381.086" style="stroke: #A80036; stroke-width: 1.0;"/><text fill="#000000" font-family="sans-serif" font-size="13" lengthAdjust="spacingAndGlyphs" textLength="164" x="455.186" y="434.0669">["Wiederhole den Artikel"]</text><!--MD5=[a7ff4f523d3306abad4117dd72065974]
link IsListening to IsPaused--><path d="M708.031,379.024 C744.579,390.525 785.228,410.239 766.186,438 C665.785,584.3782 430.953,612.5583 331.258,617.8484 " fill="none" id="IsListening-to-IsPaused" style="stroke: #A80036; stroke-width: 1.0;"/><polygon fill="#A80036" points="326.038,618.111,335.2278,621.6534,331.0317,617.8596,334.8255,613.6635,326.038,618.111" style="stroke: #A80036; stroke-width: 1.0;"/><text fill="#000000" font-family="sans-serif" font-size="13" lengthAdjust="spacingAndGlyphs" textLength="59" x="739.186" y="497.5669">["pause"]</text><!--MD5=[93aeefde5397e669e0aa76141d2a4cd4]
link IsRepeating to IsSpeaking--><path d="M430.723,467.911 C429.174,438.084 427.319,385.74 430.186,341 C431.74,316.765 435.369,289.46 438.399,269.356 " fill="none" id="IsRepeating-to-IsSpeaking" style="stroke: #A80036; stroke-width: 1.0;"/><polygon fill="#A80036" points="439.155,264.406,433.8431,272.6996,438.4007,269.3488,441.7515,273.9064,439.155,264.406" style="stroke: #A80036; stroke-width: 1.0;"/><text fill="#000000" font-family="sans-serif" font-size="13" lengthAdjust="spacingAndGlyphs" textLength="161" x="431.186" y="370.5669">["forward" wordIndex++]</text><!--MD5=[c650297cbb4d1388201d33fba909ac09]
link IsRepeating to IsPaused--><path d="M403.843,518.101 C379.135,539.112 343.31,569.575 317.496,591.5256 " fill="none" id="IsRepeating-to-IsPaused" style="stroke: #A80036; stroke-width: 1.0;"/><polygon fill="#A80036" points="313.442,594.9727,322.8897,592.1905,317.2513,591.734,317.7078,586.0956,313.442,594.9727" style="stroke: #A80036; stroke-width: 1.0;"/><text fill="#000000" font-family="sans-serif" font-size="13" lengthAdjust="spacingAndGlyphs" textLength="59" x="369.186" y="561.0669">["pause"]</text><!--MD5=[ad34980d9fd37cbb1cbe840ba5de8b38]
link IsEvaluating to IsSpeaking--><path d="M1001.63,467.921 C1001.391,453.306 999.008,434.863 990.186,421 C934.66,333.742 891.809,330.894 795.186,294 C694.846,255.686 568.589,244.505 497.799,241.276 " fill="none" id="IsEvaluating-to-IsSpeaking" style="stroke: #A80036; stroke-width: 1.0;"/><polygon fill="#A80036" points="492.38,241.039,501.1966,245.4286,497.3752,241.2575,501.5462,237.4362,492.38,241.039" style="stroke: #A80036; stroke-width: 1.0;"/><text fill="#000000" font-family="sans-serif" font-size="13" lengthAdjust="spacingAndGlyphs" textLength="189" x="970.186" y="370.5669">["articleFound" wordIndex++]</text><!--MD5=[ad34980d9fd37cbb1cbe840ba5de8b38]
link IsEvaluating to IsSpeaking--><path d="M1052.937,472.035 C1117.557,444.696 1213.227,393.043 1168.187,341 C1124.227,290.201 658.247,254.412 497.41,243.496 " fill="none" id="IsEvaluating-to-IsSpeaking-1" style="stroke: #A80036; stroke-width: 1.0;"/><polygon fill="#A80036" points="492.279,243.149,500.9888,247.7468,497.2676,243.4861,501.5282,239.765,492.279,243.149" style="stroke: #A80036; stroke-width: 1.0;"/><text fill="#000000" font-family="sans-serif" font-size="13" lengthAdjust="spacingAndGlyphs" textLength="161" x="1181.187" y="370.5669">["forward" wordIndex++]</text><!--MD5=[b8c5715c06663e23c7db0445822240f1]
link IsEvaluating to IsPaused--><path d="M953.717,518.135 C920.704,534.149 874.841,554.1481 832.186,565 C650.656,611.1834 425.916,618.2914 330.953,619.0947 " fill="none" id="IsEvaluating-to-IsPaused" style="stroke: #A80036; stroke-width: 1.0;"/><polygon fill="#A80036" points="325.707,619.1337,334.7365,623.0667,330.7069,619.0966,334.677,615.067,325.707,619.1337" style="stroke: #A80036; stroke-width: 1.0;"/><text fill="#000000" font-family="sans-serif" font-size="13" lengthAdjust="spacingAndGlyphs" textLength="59" x="886.186" y="561.0669">["pause"]</text><!--MD5=[866c4dedd10ae94164f8d48297e3aadd]
link IsEvaluating to *end--><path d="M1000.186,518.101 C1000.186,543.76 1000.186,583.5174 1000.186,604.6505 " fill="none" id="IsEvaluating-to-*end" style="stroke: #A80036; stroke-width: 1.0;"/><polygon fill="#A80036" points="1000.186,609.8464,1004.186,600.8464,1000.186,604.8464,996.186,600.8464,1000.186,609.8464" style="stroke: #A80036; stroke-width: 1.0;"/><text fill="#000000" font-family="sans-serif" font-size="13" lengthAdjust="spacingAndGlyphs" textLength="62" x="1001.186" y="561.0669">IsFinished</text><!--MD5=[fcde1fce3c9e0343a11a58133d267bdc]
@startuml
[*] - -> IsInitial
IsInitial - -> IsSpeaking : [wordIndex = 0]

IsSpeaking - -> IsListening :["tts-finish"]
IsSpeaking - -> IsSpeaking : ["forward" wordIndex++]
IsSpeaking - -> IsPaused : ["pause"]

IsListening - -> IsEvaluating : ["onSpeechResult"]
IsListening - -> IsRepeating : ["onSpeechError"]
IsListening - -> IsSpeaking : ["forward" wordIndex++]
IsListening - -> IsPaused : ["pause"]

IsPaused - -> IsSpeaking : ["play"]
IsPaused - -> IsSpeaking : ["forward" wordIndex++]

IsRepeating - -> IsListening : ["Wiederhole den Artikel"]
IsRepeating - -> IsSpeaking : ["forward" wordIndex++]
IsRepeating - -> IsPaused : ["pause"]

IsEvaluating - -> IsSpeaking: ["articleFound" wordIndex++]
IsEvaluating - -> IsSpeaking : ["forward" wordIndex++]
IsEvaluating - -> IsPaused : ["pause"]
IsEvaluating - -> [*]: IsFinished
@enduml

PlantUML version 1.2020.17beta5(Unknown compile time)
(GPL source distribution)
Java Runtime: Java(TM) SE Runtime Environment
JVM: Java HotSpot(TM) 64-Bit Server VM
Default Encoding: UTF-8
Language: en
Country: US
--></g></svg>