<?xml version="1.0" encoding="UTF-8" standalone="no"?><svg xmlns="http://www.w3.org/2000/svg" xmlns:xlink="http://www.w3.org/1999/xlink" contentScriptType="application/ecmascript" contentStyleType="text/css" height="1030px" preserveAspectRatio="none" style="width:843px;height:1030px;background:#FFFFFF;" version="1.1" viewBox="0 0 843 1030" width="843px" zoomAndPan="magnify"><defs><filter height="300%" id="fa3t2cxus6ch7" width="300%" x="-1" y="-1"><feGaussianBlur result="blurOut" stdDeviation="2.0"/><feColorMatrix in="blurOut" result="blurOut2" type="matrix" values="0 0 0 0 0 0 0 0 0 0 0 0 0 0 0 0 0 0 .4 0"/><feOffset dx="4.0" dy="4.0" in="blurOut2" result="blurOut3"/><feBlend in="SourceGraphic" in2="blurOut3" mode="normal"/></filter></defs><g><ellipse cx="509.8492" cy="16" fill="#000000" filter="url(#fa3t2cxus6ch7)" rx="10" ry="10" style="stroke:none;stroke-width:1.0;"/><g id="IsInitial"><rect fill="#FEFECE" filter="url(#fa3t2cxus6ch7)" height="50" rx="12.5" ry="12.5" style="stroke:#A80036;stroke-width:1.5;" width="71" x="474.3492" y="86"/><line style="stroke:#A80036;stroke-width:1.5;" x1="474.3492" x2="545.3492" y1="112.2969" y2="112.2969"/><text fill="#000000" font-family="sans-serif" font-size="14" lengthAdjust="spacing" textLength="51" x="484.3492" y="103.9951">IsInitial</text></g><g id="IsSpeaking"><rect fill="#FEFECE" filter="url(#fa3t2cxus6ch7)" height="50" rx="12.5" ry="12.5" style="stroke:#A80036;stroke-width:1.5;" width="98" x="370.8492" y="306"/><line style="stroke:#A80036;stroke-width:1.5;" x1="370.8492" x2="468.8492" y1="332.2969" y2="332.2969"/><text fill="#000000" font-family="sans-serif" font-size="14" lengthAdjust="spacing" textLength="78" x="380.8492" y="323.9951">IsSpeaking</text></g><g id="IsDemo"><rect fill="#FEFECE" filter="url(#fa3t2cxus6ch7)" height="50" rx="12.5" ry="12.5" style="stroke:#A80036;stroke-width:1.5;" width="74" x="382.8492" y="196"/><line style="stroke:#A80036;stroke-width:1.5;" x1="382.8492" x2="456.8492" y1="222.2969" y2="222.2969"/><text fill="#000000" font-family="sans-serif" font-size="14" lengthAdjust="spacing" textLength="54" x="392.8492" y="213.9951">IsDemo</text></g><g id="IsListening"><rect fill="#FEFECE" filter="url(#fa3t2cxus6ch7)" height="50" rx="12.5" ry="12.5" style="stroke:#A80036;stroke-width:1.5;" width="97" x="318.3492" y="416"/><line style="stroke:#A80036;stroke-width:1.5;" x1="318.3492" x2="415.3492" y1="442.2969" y2="442.2969"/><text fill="#000000" font-family="sans-serif" font-size="14" lengthAdjust="spacing" textLength="77" x="328.3492" y="433.9951">IsListening</text></g><g id="IsWaitingForUserAction"><rect fill="#FEFECE" filter="url(#fa3t2cxus6ch7)" height="50" rx="12.5" ry="12.5" style="stroke:#A80036;stroke-width:1.5;" width="187" x="68.3492" y="636"/><line style="stroke:#A80036;stroke-width:1.5;" x1="68.3492" x2="255.3492" y1="662.2969" y2="662.2969"/><text fill="#000000" font-family="sans-serif" font-size="14" lengthAdjust="spacing" textLength="167" x="78.3492" y="653.9951">IsWaitingForUserAction</text></g><g id="IsEvaluating"><rect fill="#FEFECE" filter="url(#fa3t2cxus6ch7)" height="50" rx="12.5" ry="12.5" style="stroke:#A80036;stroke-width:1.5;" width="105" x="415.3492" y="856"/><line style="stroke:#A80036;stroke-width:1.5;" x1="415.3492" x2="520.3492" y1="882.2969" y2="882.2969"/><text fill="#000000" font-family="sans-serif" font-size="14" lengthAdjust="spacing" textLength="85" x="425.3492" y="873.9951">IsEvaluating</text></g><g id="IsPaused"><rect fill="#FEFECE" filter="url(#fa3t2cxus6ch7)" height="50" rx="12.5" ry="12.5" style="stroke:#A80036;stroke-width:1.5;" width="81" x="103.3492" y="746"/><line style="stroke:#A80036;stroke-width:1.5;" x1="103.3492" x2="184.3492" y1="772.2969" y2="772.2969"/><text fill="#000000" font-family="sans-serif" font-size="14" lengthAdjust="spacing" textLength="61" x="113.3492" y="763.9951">IsPaused</text></g><g id="IsFinished"><rect fill="#FEFECE" filter="url(#fa3t2cxus6ch7)" height="50" rx="12.5" ry="12.5" style="stroke:#A80036;stroke-width:1.5;" width="90" x="518.8492" y="966"/><line style="stroke:#A80036;stroke-width:1.5;" x1="518.8492" x2="608.8492" y1="992.2969" y2="992.2969"/><text fill="#000000" font-family="sans-serif" font-size="14" lengthAdjust="spacing" textLength="70" x="528.8492" y="983.9951">IsFinished</text></g><g id="IsRepeating"><rect fill="#FEFECE" filter="url(#fa3t2cxus6ch7)" height="50" rx="12.5" ry="12.5" style="stroke:#A80036;stroke-width:1.5;" width="106" x="419.8492" y="526"/><line style="stroke:#A80036;stroke-width:1.5;" x1="419.8492" x2="525.8492" y1="552.2969" y2="552.2969"/><text fill="#000000" font-family="sans-serif" font-size="14" lengthAdjust="spacing" textLength="86" x="429.8492" y="543.9951">IsRepeating</text></g><!--MD5=[b722f7d038586c632b6db566afa306ba]
link *start to IsInitial--><path d="M509.8492,26.257 C509.8492,38.856 509.8492,61.981 509.8492,80.743 " fill="none" id="*start-to-IsInitial" style="stroke:#A80036;stroke-width:1.0;"/><polygon fill="#A80036" points="509.8492,85.907,513.8492,76.907,509.8492,80.907,505.8492,76.907,509.8492,85.907" style="stroke:#A80036;stroke-width:1.0;"/><!--MD5=[4c4a5f976aeaa2e656ac7232dcd51856]
link IsInitial to IsSpeaking--><path d="M505.6332,136.484 C500.3712,163.949 490.0412,209.438 473.8492,246 C465.1862,265.561 452.3282,285.781 441.3322,301.481 " fill="none" id="IsInitial-to-IsSpeaking" style="stroke:#A80036;stroke-width:1.0;"/><polygon fill="#A80036" points="438.2852,305.784,446.7515,300.7518,441.1753,301.7039,440.2233,296.1277,438.2852,305.784" style="stroke:#A80036;stroke-width:1.0;"/><!--MD5=[feb190cc7cfb6a37ba83b1fbfcf67404]
link IsInitial to IsDemo--><path d="M489.6512,136.237 C475.9872,152.634 457.8862,174.356 443.5402,191.57 " fill="none" id="IsInitial-to-IsDemo" style="stroke:#A80036;stroke-width:1.0;"/><polygon fill="#A80036" points="439.9792,195.844,448.8139,191.4911,443.1803,192.003,442.6683,186.3694,439.9792,195.844" style="stroke:#A80036;stroke-width:1.0;"/><!--MD5=[ef94a2d0c6cdf19b46e7e76628a95a2a]
link IsDemo to IsSpeaking--><path d="M419.8492,246.237 C419.8492,262.357 419.8492,283.621 419.8492,300.691 " fill="none" id="IsDemo-to-IsSpeaking" style="stroke:#A80036;stroke-width:1.0;"/><polygon fill="#A80036" points="419.8492,305.844,423.8492,296.844,419.8492,300.844,415.8492,296.844,419.8492,305.844" style="stroke:#A80036;stroke-width:1.0;"/><!--MD5=[7800f8457c48dc0182000313c57227ef]
link IsSpeaking to IsListening--><path d="M397.1122,356.237 C386.8062,372.495 376.0612,393.988 369.5822,411.132 " fill="none" id="IsSpeaking-to-IsListening" style="stroke:#A80036;stroke-width:1.0;"/><polygon fill="#A80036" points="367.8722,415.844,374.7026,408.7485,369.5779,411.1439,367.1825,406.0193,367.8722,415.844" style="stroke:#A80036;stroke-width:1.0;"/><!--MD5=[182f0256cc88ded02955af342071dd73]
link IsListening to IsSpeaking--><path d="M390.1722,415.844 C400.6142,399.603 411.3772,378.112 417.7562,360.954 " fill="none" id="IsListening-to-IsSpeaking" style="stroke:#A80036;stroke-width:1.0;"/><polygon fill="#A80036" points="419.4362,356.237,412.6489,363.3737,417.759,360.9473,420.1854,366.0573,419.4362,356.237" style="stroke:#A80036;stroke-width:1.0;"/><!--MD5=[f89c4f2c6a2d9767cf391091ed1382dd]
link IsSpeaking to IsWaitingForUserAction--><path d="M370.6302,351.158 C342.1962,366.311 308.0672,389.315 283.8492,416 C222.6792,483.4 176.8022,582.266 163.0392,630.855 " fill="none" id="IsSpeaking-to-IsWaitingForUserAction" style="stroke:#A80036;stroke-width:1.0;"/><polygon fill="#A80036" points="161.6632,635.962,167.8654,628.3114,162.9631,631.1339,160.1405,626.2316,161.6632,635.962" style="stroke:#A80036;stroke-width:1.0;"/><!--MD5=[16da0c96480a2f2da9fea04948141afa]
link IsWaitingForUserAction to IsSpeaking--><path d="M181.5492,635.962 C208.4792,589.512 255.4502,485.856 318.8492,416 C339.2432,393.529 366.6652,373.667 388.1912,358.906 " fill="none" id="IsWaitingForUserAction-to-IsSpeaking" style="stroke:#A80036;stroke-width:1.0;"/><polygon fill="#A80036" points="392.4142,356.023,382.726,357.7947,388.285,358.8425,387.2372,364.4014,392.4142,356.023" style="stroke:#A80036;stroke-width:1.0;"/><!--MD5=[fc81702c8998236182a85482de480a35]
link IsSpeaking to IsSpeaking--><path d="M469.0292,310.456 C488.0442,309.542 503.8492,316.391 503.8492,331 C503.8492,344.24 490.8692,351.105 474.2822,351.597 " fill="none" id="IsSpeaking-to-IsSpeaking" style="stroke:#A80036;stroke-width:1.0;"/><polygon fill="#A80036" points="469.0292,351.544,477.9899,355.6312,474.029,351.5926,478.0676,347.6316,469.0292,351.544" style="stroke:#A80036;stroke-width:1.0;"/><!--MD5=[03b540e1bd0ab6b405b1a60a44a791d0]
link IsSpeaking to IsEvaluating--><path d="M430.3502,356.069 C454.3242,390.667 506.0592,457.829 525.8492,526 C544.8742,591.537 537.3322,668.115 495.8492,796 C489.6042,815.253 479.0502,835.289 471.5882,850.962 " fill="none" id="IsSpeaking-to-IsEvaluating" style="stroke:#A80036;stroke-width:1.0;"/><polygon fill="#A80036" points="469.3802,855.68,476.8187,849.2249,471.5001,851.1516,469.5733,845.833,469.3802,855.68" style="stroke:#A80036;stroke-width:1.0;"/><!--MD5=[ad34980d9fd37cbb1cbe840ba5de8b38]
link IsEvaluating to IsSpeaking--><path d="M499.2472,855.68 C511.8202,839.443 523.9582,817.245 530.8492,796 C572.3322,668.115 579.8742,591.537 560.8492,526 C541.7552,460.225 492.9222,395.391 457.4112,359.837 " fill="none" id="IsEvaluating-to-IsSpeaking" style="stroke:#A80036;stroke-width:1.0;"/><polygon fill="#A80036" points="453.5842,356.069,457.1902,365.234,457.1468,359.5773,462.8035,359.5339,453.5842,356.069" style="stroke:#A80036;stroke-width:1.0;"/><!--MD5=[c8622c207f058690190b3b8033109f8f]
link IsSpeaking to IsPaused--><path d="M370.7852,347.655 C278.2452,383.421 83.3582,480.262 18.8492,636 C10.3451,656.531 9.0858,666.037 18.8492,686 C34.6001,718.205 69.317,741.633 98.6458,755.439 " fill="none" id="IsSpeaking-to-IsPaused" style="stroke:#A80036;stroke-width:1.0;"/><polygon fill="#A80036" points="103.3029,757.573,96.7862,750.1884,98.7571,755.4908,93.4547,757.4617,103.3029,757.573" style="stroke:#A80036;stroke-width:1.0;"/><!--MD5=[c12dd32a59b6a03b2454459c34b01cc9]
link IsPaused to IsSpeaking--><path d="M111.8007,745.923 C91.0903,731.83 66.4248,711.713 53.8492,686 C44.0858,666.037 45.3451,656.531 53.8492,636 C112.7492,493.804 280.3382,400.708 367.1032,358.369 " fill="none" id="IsPaused-to-IsSpeaking" style="stroke:#A80036;stroke-width:1.0;"/><polygon fill="#A80036" points="371.6822,356.145,361.839,356.4778,367.1844,358.3289,365.3333,363.6743,371.6822,356.145" style="stroke:#A80036;stroke-width:1.0;"/><!--MD5=[872675c47c02ce0eaf257c6d58e6aac0]
link IsSpeaking to IsFinished--><path d="M469.0012,343.223 C557.2372,364.915 731.8492,422.212 731.8492,550 C731.8492,550 731.8492,550 731.8492,772 C731.8492,857.699 647.7082,926.9571 598.1302,962.9724 " fill="none" id="IsSpeaking-to-IsFinished" style="stroke:#A80036;stroke-width:1.0;"/><polygon fill="#A80036" points="594.0332,965.9306,603.6714,963.9046,598.0868,963.0034,598.988,957.4188,594.0332,965.9306" style="stroke:#A80036;stroke-width:1.0;"/><!--MD5=[9d704b1644cc665bdd0474dcbb0420de]
link IsFinished to IsSpeaking--><path d="M608.8772,970.7249 C669.1892,937.5724 766.8492,864.328 766.8492,772 C766.8492,550 766.8492,550 766.8492,550 C766.8492,415.034 572.0712,358.7 474.0532,339.898 " fill="none" id="IsFinished-to-IsSpeaking" style="stroke:#A80036;stroke-width:1.0;"/><polygon fill="#A80036" points="468.8862,338.925,476.9899,344.5223,473.7997,339.8508,478.4712,336.6607,468.8862,338.925" style="stroke:#A80036;stroke-width:1.0;"/><!--MD5=[cb0715dede82c3ccc0e0e0e28df9ac6f]
link IsListening to IsEvaluating--><path d="M372.4232,466.173 C389.7022,541.105 442.3302,769.332 461.1052,850.754 " fill="none" id="IsListening-to-IsEvaluating" style="stroke:#A80036;stroke-width:1.0;"/><polygon fill="#A80036" points="462.2922,855.902,464.1691,846.2336,461.1695,851.0297,456.3734,848.03,462.2922,855.902" style="stroke:#A80036;stroke-width:1.0;"/><!--MD5=[48c62200b08226b3773194bc69000c53]
link IsListening to IsRepeating--><path d="M379.7942,466.237 C393.7732,482.912 415.3982,505.094 434.5202,522.442 " fill="none" id="IsListening-to-IsRepeating" style="stroke:#A80036;stroke-width:1.0;"/><polygon fill="#A80036" points="438.3082,525.844,434.2856,516.8541,434.5885,522.5028,428.9397,522.8056,438.3082,525.844" style="stroke:#A80036;stroke-width:1.0;"/><!--MD5=[fc840f16fb415016028893b8ec5f3eb1]
link IsRepeating to IsListening--><path d="M460.6092,525.844 C446.7952,509.186 425.1882,487.006 405.9352,469.643 " fill="none" id="IsRepeating-to-IsListening" style="stroke:#A80036;stroke-width:1.0;"/><polygon fill="#A80036" points="402.1192,466.237,406.171,475.2138,405.8498,469.5661,411.4975,469.2449,402.1192,466.237" style="stroke:#A80036;stroke-width:1.0;"/><!--MD5=[a7ff4f523d3306abad4117dd72065974]
link IsListening to IsPaused--><path d="M327.1182,466.051 C242.6672,517.217 52.8039,632.506 50.8492,636 C39.9989,655.393 41.8264,665.692 50.8492,686 C61.033,708.921 80.904,728.233 99.6724,742.537 " fill="none" id="IsListening-to-IsPaused" style="stroke:#A80036;stroke-width:1.0;"/><polygon fill="#A80036" points="103.9072,745.697,99.0842,737.1099,99.8992,742.7077,94.3014,743.5227,103.9072,745.697" style="stroke:#A80036;stroke-width:1.0;"/><!--MD5=[dafe59c1f4433bcb74f8dd8fb5c13be3]
link IsListening to IsWaitingForUserAction--><path d="M335.7552,466.163 C291.9312,506.757 214.9412,588.437 179.5752,631.668 " fill="none" id="IsListening-to-IsWaitingForUserAction" style="stroke:#A80036;stroke-width:1.0;"/><polygon fill="#A80036" points="176.2852,635.729,185.0599,631.2562,179.4337,631.8448,178.8451,626.2187,176.2852,635.729" style="stroke:#A80036;stroke-width:1.0;"/><!--MD5=[5f5df108eb33cf5650ba62192c6a5e70]
link IsWaitingForUserAction to IsListening--><path d="M193.5542,635.729 C237.7672,595.062 314.7602,513.379 349.7412,470.217 " fill="none" id="IsWaitingForUserAction-to-IsListening" style="stroke:#A80036;stroke-width:1.0;"/><polygon fill="#A80036" points="352.9922,466.163,344.2404,470.6803,349.8635,470.0632,350.4807,475.6862,352.9922,466.163" style="stroke:#A80036;stroke-width:1.0;"/><!--MD5=[17a41df278d8f939cc9c7c6717d3947a]
link IsListening to IsFinished--><path d="M318.2192,452.813 C219.2142,477.794 6,548.198 35.8492,686 C59.9405,797.22 71.1825,844.37 166.8492,906 C275.9432,976.2797 433.5892,988.911 513.4312,990.4683 " fill="none" id="IsListening-to-IsFinished" style="stroke:#A80036;stroke-width:1.0;"/><polygon fill="#A80036" points="518.5762,990.5554,509.6449,986.4043,513.5769,990.4711,509.5101,994.4031,518.5762,990.5554" style="stroke:#A80036;stroke-width:1.0;"/><!--MD5=[501494e05af84e8b2021ac23e05eecc9]
link IsPaused to IsEvaluating--><path d="M184.5812,788.757 C241.7482,809.256 345.1762,843.716 410.1782,863.908 " fill="none" id="IsPaused-to-IsEvaluating" style="stroke:#A80036;stroke-width:1.0;"/><polygon fill="#A80036" points="415.1782,865.456,407.7651,858.9718,410.4022,863.9763,405.3976,866.6134,415.1782,865.456" style="stroke:#A80036;stroke-width:1.0;"/><!--MD5=[b8c5715c06663e23c7db0445822240f1]
link IsEvaluating to IsPaused--><path d="M415.1002,858.753 C352.2872,836.507 249.1072,802.341 189.5082,784.238 " fill="none" id="IsEvaluating-to-IsPaused" style="stroke:#A80036;stroke-width:1.0;"/><polygon fill="#A80036" points="184.5872,782.75,192.0447,789.1832,189.3733,784.1968,194.3596,781.5254,184.5872,782.75" style="stroke:#A80036;stroke-width:1.0;"/><!--MD5=[2d14260f5747d0fd35763fe8da293884]
link IsPaused to IsFinished--><path d="M149.4102,796.048 C157.7072,826.387 176.3072,877.973 211.8492,906 C300.9772,976.2831 439.6162,989.2013 513.4952,990.7178 " fill="none" id="IsPaused-to-IsFinished" style="stroke:#A80036;stroke-width:1.0;"/><polygon fill="#A80036" points="518.7012,990.8079,509.7711,986.6542,513.7019,990.7222,509.634,994.653,518.7012,990.8079" style="stroke:#A80036;stroke-width:1.0;"/><!--MD5=[93aeefde5397e669e0aa76141d2a4cd4]
link IsRepeating to IsSpeaking--><path d="M466.9482,525.729 C457.1412,485.39 437.5222,404.694 426.9652,361.269 " fill="none" id="IsRepeating-to-IsSpeaking" style="stroke:#A80036;stroke-width:1.0;"/><polygon fill="#A80036" points="425.7232,356.163,423.963,365.8533,426.9046,361.0214,431.7365,363.9631,425.7232,356.163" style="stroke:#A80036;stroke-width:1.0;"/><!--MD5=[c650297cbb4d1388201d33fba909ac09]
link IsRepeating to IsPaused--><path d="M437.1762,576.106 C397.2452,603.041 330.5662,647.876 272.8492,686 C243.7582,705.216 210.8182,726.66 185.5052,743.072 " fill="none" id="IsRepeating-to-IsPaused" style="stroke:#A80036;stroke-width:1.0;"/><polygon fill="#A80036" points="181.1912,745.868,190.919,744.3286,185.3867,743.1481,186.5672,737.6158,181.1912,745.868" style="stroke:#A80036;stroke-width:1.0;"/><!--MD5=[bfdae0c847ffd43bdd8602f5120d61ea]
link IsRepeating to IsWaitingForUserAction--><path d="M419.7402,570.443 C369.1172,588.023 292.4312,614.653 235.8332,634.308 " fill="none" id="IsRepeating-to-IsWaitingForUserAction" style="stroke:#A80036;stroke-width:1.0;"/><polygon fill="#A80036" points="231.1082,635.949,240.9223,636.7754,235.8315,634.3088,238.2981,629.218,231.1082,635.949" style="stroke:#A80036;stroke-width:1.0;"/><!--MD5=[137ab3ec949e6da3eceadfd5109b7517]
link IsRepeating to IsEvaluating--><path d="M465.4202,576.119 C457.1452,635.117 454.6332,786.563 460.6262,850.652 " fill="none" id="IsRepeating-to-IsEvaluating" style="stroke:#A80036;stroke-width:1.0;"/><polygon fill="#A80036" points="461.1522,855.846,464.2241,846.4884,460.6479,850.8715,456.2649,847.2953,461.1522,855.846" style="stroke:#A80036;stroke-width:1.0;"/><!--MD5=[c934c41297890df24106e53bc2146ed1]
link IsEvaluating to IsRepeating--><path d="M475.6982,855.846 C484.4052,796.81 486.9262,645.364 480.5192,581.31 " fill="none" id="IsEvaluating-to-IsRepeating" style="stroke:#A80036;stroke-width:1.0;"/><polygon fill="#A80036" points="479.9582,576.119,476.9508,585.4975,480.4967,581.0899,484.9043,584.6358,479.9582,576.119" style="stroke:#A80036;stroke-width:1.0;"/><!--MD5=[402e45ae33ffa5b22a0ab8e794d5932d]
link IsRepeating to IsFinished--><path d="M487.5552,576.106 C496.8402,592.437 508.2832,614.82 514.8492,636 C550.9602,752.49 560.5052,898.8 562.9912,960.4554 " fill="none" id="IsRepeating-to-IsFinished" style="stroke:#A80036;stroke-width:1.0;"/><polygon fill="#A80036" points="563.1972,965.8034,566.8473,956.6559,563.0045,960.8071,558.8533,956.9643,563.1972,965.8034" style="stroke:#A80036;stroke-width:1.0;"/><!--MD5=[b09ed1c21fbaf0622b7c10808d3d3987]
link IsWaitingForUserAction to IsEvaluating--><path d="M195.7662,686.163 C253.2062,727.085 369.2522,809.757 429.5382,852.706 " fill="none" id="IsWaitingForUserAction-to-IsEvaluating" style="stroke:#A80036;stroke-width:1.0;"/><polygon fill="#A80036" points="433.7812,855.729,428.7733,847.2484,429.7094,852.8273,424.1305,853.7634,433.7812,855.729" style="stroke:#A80036;stroke-width:1.0;"/><!--MD5=[f66295c100e90e13d4efc8f74f09659e]
link IsWaitingForUserAction to IsPaused--><path d="M157.8092,686.237 C155.1232,702.357 151.5792,723.621 148.7342,740.691 " fill="none" id="IsWaitingForUserAction-to-IsPaused" style="stroke:#A80036;stroke-width:1.0;"/><polygon fill="#A80036" points="147.8752,745.844,153.2996,737.6235,148.6967,740.912,145.4083,736.3091,147.8752,745.844" style="stroke:#A80036;stroke-width:1.0;"/><!--MD5=[063dc911e307ff846d7a650ca7a1fb55]
link IsWaitingForUserAction to IsFinished--><path d="M179.8922,686.12 C216.4592,733.63 303.8562,840.392 397.8492,906 C434.3262,931.4615 479.6012,953.8395 513.6492,969.0823 " fill="none" id="IsWaitingForUserAction-to-IsFinished" style="stroke:#A80036;stroke-width:1.0;"/><polygon fill="#A80036" points="518.5892,971.2789,511.9926,963.9656,514.021,969.2463,508.7404,971.2747,518.5892,971.2789" style="stroke:#A80036;stroke-width:1.0;"/><!--MD5=[363f904d4ded59d0fc7e8496aa7b071c]
link IsEvaluating to IsFinished--><path d="M489.3932,906.237 C504.0922,922.7734 523.6042,944.7246 538.9662,962.0069 " fill="none" id="IsEvaluating-to-IsFinished" style="stroke:#A80036;stroke-width:1.0;"/><polygon fill="#A80036" points="542.3772,965.8436,539.3876,956.4594,539.0554,962.1065,533.4083,961.7743,542.3772,965.8436" style="stroke:#A80036;stroke-width:1.0;"/><!--MD5=[bc4519936bf0afe1a26f9cd7a00aa7cf]
link IsFinished to IsInitial--><path d="M608.9292,976.9809 C686.4692,951.5045 836.8492,887.241 836.8492,772 C836.8492,330 836.8492,330 836.8492,330 C836.8492,193.864 638.2102,137.51 550.5692,119.271 " fill="none" id="IsFinished-to-IsInitial" style="stroke:#A80036;stroke-width:1.0;"/><polygon fill="#A80036" points="545.4662,118.226,553.4795,123.952,550.3643,119.2302,555.0862,116.1151,545.4662,118.226" style="stroke:#A80036;stroke-width:1.0;"/><!--MD5=[ae7c8eb463e14f45f1c7e9ce8a7f6b53]
@startuml
[*] - -> IsInitial
IsInitial - -> IsSpeaking 
IsInitial - -> IsDemo 
IsDemo - -> IsSpeaking 

IsSpeaking - -> IsListening 
IsSpeaking - -> IsWaitingForUserAction
IsSpeaking - -> IsSpeaking
IsSpeaking - -> IsEvaluating 
IsSpeaking - -> IsPaused 
IsSpeaking - -> IsFinished 

IsListening - -> IsEvaluating
IsListening - -> IsRepeating 
IsListening - -> IsSpeaking 
IsListening - -> IsPaused 
IsListening - -> IsWaitingForUserAction
IsListening - -> IsFinished

IsPaused - -> IsSpeaking 
IsPaused - -> IsEvaluating
IsPaused - -> IsFinished

IsRepeating - -> IsListening
IsRepeating - -> IsSpeaking
IsRepeating - -> IsPaused
IsRepeating - -> IsWaitingForUserAction
IsRepeating - -> IsEvaluating
IsRepeating - -> IsFinished

IsWaitingForUserAction - -> IsSpeaking
IsWaitingForUserAction - -> IsListening
IsWaitingForUserAction - -> IsEvaluating
IsWaitingForUserAction - -> IsPaused
IsWaitingForUserAction - -> IsFinished


IsEvaluating - -> IsSpeaking
IsEvaluating - -> IsRepeating 
IsEvaluating - -> IsPaused 
IsEvaluating - -> IsFinished

IsFinished - -> IsSpeaking
IsFinished - -> IsInitial
@enduml

PlantUML version 1.2021.9beta2(Unknown compile time)
(GPL source distribution)
Java Runtime: Java(TM) SE Runtime Environment
JVM: Java HotSpot(TM) 64-Bit Server VM
Default Encoding: UTF-8
Language: en
Country: US
--></g></svg>