<?xml version="1.0" encoding="iso-8859-1"?>
<!-- Generator: Adobe Illustrator 19.0.0, SVG Export Plug-In . SVG Version: 6.00 Build 0)  -->
<svg version="1.1" id="Capa_1" xmlns="http://www.w3.org/2000/svg" xmlns:xlink="http://www.w3.org/1999/xlink" x="0px" y="0px"
	 viewBox="0 0 480 480" style="enable-background:new 0 0 480 480;" xml:space="preserve">
<g>
	<g>
		<path d="M466.64,464L318.184,282.928C316.664,281.08,314.4,280,312,280h-1.528l-4.784-22.328
			c5.064,0.696,10.104,1.168,15.096,1.168c15,0,29.624-4.048,43.672-17.592c4.92-4.736,9.6-11.248,14.56-18.152
			c7.64-10.616,16.296-22.656,24.472-25.456c0.008-0.008,0.016-0.008,0.032-0.016c4.184-1.424,6.416-5.96,5-10.152
			c-1.424-4.176-5.976-6.448-10.152-4.992c0,0-0.008,0-0.016,0c-10.8,3.704-22.672-2.776-29.544-9.416
			c-7.568-7.304-12.904-16.792-18.552-26.832l-3.16-5.568c-4.664-8.112-10.248-16.776-17.472-24C343.176,106.448,352,90.256,352,72
			V8c0-4.424-3.584-8-8-8h-32c-4.416,0-8,3.576-8,8v64c0,4.416-3.592,8-8,8h-20.32C283.312,71.496,288,60.304,288,48
			c0-26.472-21.528-48-48-48s-48,21.528-48,48c0,12.304,4.688,23.496,12.32,32H184c-4.408,0-8-3.584-8-8V8c0-4.424-3.584-8-8-8h-32
			c-4.416,0-8,3.576-8,8v64c0,30.872,25.12,56,56,56h8v47.16L169.528,280H168c-2.4,0-4.664,1.08-6.184,2.928L13.36,464H0v16h17.144
			h445.712H480v-16H466.64z M333.216,148.648l3.088,5.448c5.96,10.6,12.128,21.56,21.376,30.496
			c5.432,5.24,12.704,10.112,20.872,12.808c-4.384,5.04-8.488,10.744-12.528,16.36c-4.528,6.296-8.8,12.24-12.672,15.976
			c-14.28,13.76-28.896,14.872-51.264,11.168L288,175.16V128h8c6.568,0,12.848-1.192,18.712-3.28
			C322.32,130.912,328.104,139.76,333.216,148.648z M240,16c17.648,0,32,14.352,32,32s-14.352,32-32,32s-32-14.352-32-32
			S222.352,16,240,16z M207.824,177.68c0.12-0.552,0.176-1.12,0.176-1.68v-56c0-4.424-3.584-8-8-8h-16c-22.056,0-40-17.944-40-40V16
			h16v56c0,13.232,10.768,24,24,24h112c13.232,0,24-10.768,24-24V16h16v56c0,22.056-17.944,40-40,40h-16c-4.416,0-8,3.576-8,8v56
			c0,0.56,0.056,1.128,0.176,1.68L294.104,280h-23.856l-22.488-89.936c-0.888-3.568-4.088-6.064-7.76-6.064s-6.872,2.496-7.76,6.064
			L209.752,280h-23.856L207.824,177.68z M253.752,280h-27.504L240,224.984L253.752,280z M171.784,296H176h40h48h40h4.216
			l39.856,48.616L320,372.688l-34.344-34.344c-3.128-3.128-8.184-3.128-11.312,0L240,372.688l-34.344-34.344
			c-3.128-3.128-8.184-3.128-11.312,0L160,372.688l-28.072-28.072L171.784,296z M34.048,464l87.688-106.952l32.608,32.608
			c3.128,3.128,8.184,3.128,11.312,0L200,355.312l34.344,34.344c3.128,3.128,8.184,3.128,11.312,0L280,355.312l34.344,34.344
			c1.56,1.56,3.608,2.344,5.656,2.344c2.048,0,4.096-0.784,5.656-2.344l32.608-32.608L445.952,464H34.048z"/>
	</g>
</g>
<g>
	<g>
		<rect x="232" y="432" width="16" height="16"/>
	</g>
</g>
<g>
	<g>
		<rect x="264" y="432" width="16" height="16"/>
	</g>
</g>
<g>
	<g>
		<rect x="200" y="432" width="16" height="16"/>
	</g>
</g>
<g>
	<g>
		<path d="M104,48C81.944,48,64,30.056,64,8c0-4.424-3.584-8-8-8s-8,3.576-8,8c0,22.056-17.944,40-40,40c-4.416,0-8,3.576-8,8
			s3.584,8,8,8c22.056,0,40,17.944,40,40c0,4.424,3.584,8,8,8s8-3.576,8-8c0-22.056,17.944-40,40-40c4.416,0,8-3.576,8-8
			S108.416,48,104,48z M56,75.176C51.272,67.336,44.664,60.728,36.824,56C44.664,51.272,51.272,44.664,56,36.824
			C60.728,44.664,67.336,51.272,75.176,56C67.336,60.728,60.728,67.336,56,75.176z"/>
	</g>
</g>
<g>
	<g>
		<path d="M472,288c-22.056,0-40-17.944-40-40c0-4.424-3.584-8-8-8c-4.416,0-8,3.576-8,8c0,22.056-17.944,40-40,40
			c-4.416,0-8,3.576-8,8s3.584,8,8,8c22.056,0,40,17.944,40,40c0,4.424,3.584,8,8,8c4.416,0,8-3.576,8-8c0-22.056,17.944-40,40-40
			c4.416,0,8-3.576,8-8S476.416,288,472,288z M424,315.176c-4.728-7.84-11.336-14.456-19.176-19.176
			c7.848-4.728,14.448-11.336,19.176-19.176c4.728,7.84,11.336,14.456,19.176,19.176C435.336,300.728,428.728,307.336,424,315.176z"
			/>
	</g>
</g>
<g>
	<g>
		<path d="M96,192c-16.032,0-31.184,6.888-41.752,18.712C49.672,208.928,44.84,208,40,208c-22.056,0-40,17.944-40,40
			c0,3.144,0.456,6.416,1.392,10.016C2.304,261.536,5.488,264,9.136,264H143.28c3.904,0,7.24-2.824,7.888-6.68
			C151.728,254,152,250.944,152,248C152,217.128,126.88,192,96,192z M16,248c0-13.232,10.768-24,24-24c4.312,0,8.48,1.2,12.376,3.56
			c3.624,2.208,8.32,1.192,10.728-2.28C70.592,214.464,82.888,208,96,208c22.056,0,40,17.944,40,40H16z"/>
	</g>
</g>
<g>
</g>
<g>
</g>
<g>
</g>
<g>
</g>
<g>
</g>
<g>
</g>
<g>
</g>
<g>
</g>
<g>
</g>
<g>
</g>
<g>
</g>
<g>
</g>
<g>
</g>
<g>
</g>
<g>
</g>
</svg>
